<?xml version="1.0" encoding="UTF-8"?>
<svg width="1917px" height="952px" viewBox="0 0 1917 952" version="1.1" xmlns="http://www.w3.org/2000/svg" xmlns:xlink="http://www.w3.org/1999/xlink">
    <!-- Generator: Sketch 50.2 (55047) - http://www.bohemiancoding.com/sketch -->
    <title>Group 664</title>
    <desc>Created with Sketch.</desc>
    <defs></defs>
    <g id="Page-1" stroke="none" stroke-width="1" fill="none" fill-rule="evenodd" opacity="0.0487723214">
        <g id="home_dark-copy" transform="translate(-3.000000, 0.000000)">
            <g id="Group-664" transform="translate(3.000000, -971.000000)">
                <path d="M1436.95726,1923 L1517.69861,1841.5133 C1523.4338,1835.72514 1523.4338,1826.34052 1517.69861,1820.55236 L1517.48882,1820.34112 C1511.75364,1814.55296 1502.45492,1814.55296 1496.71974,1820.34112 L1395,1923 L1436.95726,1923 Z" id="Fill-3" fill="#171717"></path>
                <path d="M1072.35328,1824.41512 L1233.41513,1663.35294 C1239.2195,1657.54902 1248.62991,1657.54902 1254.43428,1663.35294 L1254.64709,1663.56574 C1260.45097,1669.36966 1260.45097,1678.78012 1254.64709,1684.58452 L1093.58524,1845.6467 C1087.78086,1851.4511 1078.36997,1851.4511 1072.5656,1845.6467 L1072.35328,1845.43438 C1066.54891,1839.63046 1066.54891,1830.21952 1072.35328,1824.41512" id="Fill-5" fill="#171717"></path>
                <path d="M1016.14132,1923 L1114.67969,1823.61091 C1120.4401,1817.80023 1120.4401,1808.38038 1114.67969,1802.57066 L1114.46898,1802.35765 C1108.70858,1796.54745 1099.36944,1796.54745 1093.60855,1802.35765 L974,1923 L1016.14132,1923 Z" id="Fill-7" fill="#7F7F7F"></path>
                <path d="M594.708866,1921 L658.62151,1857.54735 C664.459497,1851.75138 664.459497,1842.35411 658.62151,1836.55863 L658.407961,1836.34661 C652.570462,1830.55113 643.105064,1830.55113 637.267077,1836.34661 L552,1921 L594.708866,1921 Z" id="Fill-9" fill="#171717"></path>
                <path d="M487.294815,1923 L545.663958,1863.83181 C551.445347,1857.97177 551.445347,1848.47031 545.663958,1842.60977 L545.452479,1842.3954 C539.67109,1836.53487 530.29794,1836.53487 524.516068,1842.3954 L445,1923 L487.294815,1923 Z" id="Fill-11" fill="#171717"></path>
                <path d="M180.650692,843.561415 L51.5614155,972.650692 C45.7623384,978.449769 36.3605108,978.449769 30.5614337,972.650692 L30.3493078,972.438082 C24.5502307,966.639489 24.5502307,957.237177 30.3493078,951.438585 L159.438585,822.349308 C165.237662,816.550231 174.639489,816.550231 180.438566,822.349308 L180.650692,822.561434 C186.449769,828.360511 186.449769,837.762338 180.650692,843.561415" id="Fill-45" fill="#424242"></path>
                <path d="M153.353289,1040.41512 L314.415063,879.352937 C320.219449,873.549021 329.630368,873.549021 335.434754,879.352937 L335.647074,879.565258 C341.450975,885.369658 341.450975,894.780117 335.647074,900.585002 L174.584816,1061.6467 C168.78043,1067.4511 159.369996,1067.4511 153.565125,1061.6467 L153.353289,1061.43438 C147.548904,1055.63046 147.548904,1046.21952 153.353289,1040.41512" id="Fill-69" fill="#171717"></path>
                <path d="M151.349304,1040.43841 L280.438483,911.349318 C286.237556,905.550227 295.63986,905.550227 301.438933,911.349318 L301.651059,911.561444 C307.449647,917.360534 307.449647,926.762384 301.651059,932.561474 L172.561396,1061.65105 C166.762808,1067.44965 157.360503,1067.44965 151.56143,1061.65105 L151.349304,1061.43843 C145.550232,1055.63983 145.550232,1046.23798 151.349304,1040.43841" id="Fill-71" fill="#424242"></path>
                <path d="M169.30995,1022.66954 L169.669893,1022.31007 C175.416493,1016.56331 184.733243,1016.56331 190.479843,1022.31007 L190.69005,1022.52028 C196.43665,1028.26704 196.43665,1037.58405 190.69005,1043.3313 L190.330107,1043.69029 C184.583987,1049.43657 175.266757,1049.43657 169.520157,1043.69029 L169.30995,1043.48008 C163.56335,1037.7338 163.56335,1028.41631 169.30995,1022.66954" id="Fill-75" fill="#171717"></path>
                <path d="M403.371497,1105.3084 L452.308116,1056.37152 C458.136779,1050.54283 467.586572,1050.54283 473.415234,1056.37152 L473.628442,1056.58473 C479.457105,1062.41342 479.457105,1071.86327 473.628929,1077.69245 L424.691823,1126.62884 C418.863647,1132.45705 409.413367,1132.45705 403.584705,1126.62884 L403.371497,1126.41515 C397.542834,1120.58694 397.542834,1111.1371 403.371497,1105.3084" id="Fill-77" fill="#7F7F7F"></path>
                <path d="M510.353281,997.415168 L671.414748,836.353292 C677.219123,830.548903 686.630024,830.548903 692.434399,836.353292 L692.646719,836.565612 C698.451094,842.369517 698.451094,851.780443 692.646719,857.584832 L531.584767,1018.64671 C525.780877,1024.4511 516.369976,1024.4511 510.565601,1018.64671 L510.353281,1018.43439 C504.548906,1012.63048 504.548906,1003.21956 510.353281,997.415168" id="Fill-81" fill="#424242"></path>
                <path d="M359.30995,1149.66954 L359.669893,1149.31007 C365.416013,1143.56331 374.733243,1143.56331 380.479843,1149.31007 L380.69005,1149.52028 C386.43665,1155.26704 386.43665,1164.58405 380.69005,1170.33082 L380.330107,1170.69029 C374.583987,1176.43657 365.266757,1176.43657 359.520157,1170.69029 L359.30995,1170.48008 C353.56335,1164.7338 353.56335,1155.41631 359.30995,1149.66954" id="Fill-83" fill="#171717"></path>
                <path d="M85.6900496,1043.33094 L85.3301072,1043.68993 C79.5835066,1049.43669 70.2667573,1049.43669 64.5201568,1043.68993 L64.3099504,1043.4802 C58.5633499,1037.73344 58.5633499,1028.41595 64.3099504,1022.66918 L64.6698928,1022.30971 C70.4160134,1016.56343 79.7332427,1016.56343 85.4798432,1022.30971 L85.6900496,1022.5204 C91.4366501,1028.26668 91.4366501,1037.58369 85.6900496,1043.33094" id="Fill-91" fill="#171717"></path>
                <path d="M329.353281,971.415482 L490.415233,810.353301 C496.219607,804.5489 505.630509,804.5489 511.434399,810.353301 L511.646719,810.565621 C517.451094,816.370022 517.451094,825.78048 511.646719,831.584881 L350.584767,992.647063 C344.780393,998.450979 335.369976,998.450979 329.565601,992.647063 L329.353281,992.434258 C323.548906,986.630342 323.548906,977.219883 329.353281,971.415482" id="Fill-93" fill="#171717"></path>
                <path d="M223.628527,1118.69175 L174.691684,1167.62845 C168.86354,1173.45718 159.413311,1173.45718 153.58468,1167.62845 L153.371473,1167.41524 C147.542842,1161.58651 147.542842,1152.13661 153.371473,1146.30739 L202.308316,1097.37118 C208.136947,1091.54294 217.586689,1091.54294 223.41532,1097.37118 L223.628527,1097.58488 C229.457158,1103.41312 229.457158,1112.86302 223.628527,1118.69175" id="Fill-95" fill="#424242"></path>
                <path d="M264.353281,1034.41548 L425.415233,873.353301 C431.219607,867.5489 440.630024,867.5489 446.434399,873.353301 L446.646719,873.565621 C452.451094,879.370022 452.451094,888.78048 446.646719,894.584881 L285.584767,1055.64706 C279.780393,1061.45098 270.369976,1061.45098 264.565601,1055.64706 L264.353281,1055.43474 C258.548906,1049.63034 258.548906,1040.21988 264.353281,1034.41548" id="Fill-97" fill="#7F7F7F"></path>
                <path d="M122.689989,1216.33058 L122.330042,1216.69005 C116.583361,1222.43673 107.266481,1222.43673 101.5198,1216.68957 L101.309591,1216.47984 C95.5633897,1210.73316 95.5633897,1201.4158 101.310071,1195.66912 L101.669538,1195.30965 C107.416219,1189.56345 116.733099,1189.56345 122.47978,1195.30965 L122.689989,1195.52034 C128.43667,1201.26654 128.43667,1210.5839 122.689989,1216.33058" id="Fill-101" fill="#171717"></path>
                <path d="M260.353281,1145.41507 L421.415233,984.352936 C427.219123,978.549021 436.630024,978.549021 442.434399,984.352936 L442.646719,984.565741 C448.451094,990.369655 448.451094,999.780111 442.646719,1005.58451 L281.584767,1166.64664 C275.780393,1172.45104 266.369976,1172.45104 260.565601,1166.64713 L260.353281,1166.43432 C254.548906,1160.63041 254.548906,1151.21947 260.353281,1145.41507" id="Fill-109" fill="#171717"></path>
                <path d="M258.349308,1145.43841 L387.438585,1016.34932 C393.237662,1010.55023 402.639974,1010.55023 408.438566,1016.34932 L408.650692,1016.56193 C414.449769,1022.36053 414.449769,1031.76238 408.650692,1037.56147 L279.561415,1166.65105 C273.762338,1172.44965 264.360511,1172.44965 258.561434,1166.65105 L258.349308,1166.43843 C252.550231,1160.63983 252.550231,1151.23798 258.349308,1145.43841" id="Fill-111" fill="#424242"></path>
                <path d="M276.310019,1129.66949 L276.669968,1129.31002 C282.41618,1123.56333 291.733558,1123.56333 297.479771,1129.31002 L297.689981,1129.52023 C303.436673,1135.26692 303.436673,1144.58382 297.689981,1150.33099 L297.330512,1150.68998 C291.58382,1156.43667 282.266922,1156.43667 276.520229,1150.68998 L276.310019,1150.47977 C270.563327,1144.73356 270.563327,1135.41618 276.310019,1129.66949" id="Fill-115" fill="#171717"></path>
                <path d="M224.646719,1539.58454 L63.5847675,1700.64688 C57.7803926,1706.4508 48.3699758,1706.45128 42.5656009,1700.64688 L42.3532812,1700.43456 C36.5489063,1694.63063 36.5489063,1685.21968 42.3532812,1679.41528 L203.415233,1518.35294 C209.219123,1512.54902 218.630024,1512.54902 224.434399,1518.35294 L224.646719,1518.56526 C230.451094,1524.36967 230.451094,1533.78014 224.646719,1539.58454" id="Fill-117" fill="#171717"></path>
                <path d="M508.371493,1212.30838 L557.308075,1163.37195 C563.136733,1157.54276 572.586519,1157.54276 578.415664,1163.37146 L578.628872,1163.58467 C584.457043,1169.41337 584.457043,1178.86371 578.628872,1184.69241 L529.69229,1233.62884 C523.863632,1239.45705 514.413359,1239.45705 508.584701,1233.62884 L508.371493,1233.41563 C502.542836,1227.58693 502.542836,1218.13708 508.371493,1212.30838" id="Fill-119" fill="#7F7F7F"></path>
                <path d="M766.371493,954.307999 L815.308075,905.371527 C821.136733,899.542824 830.586519,899.542824 836.415664,905.371527 L836.628872,905.584737 C842.457043,911.412953 842.457043,920.863298 836.628872,926.692001 L787.69229,975.628473 C781.863632,981.457176 772.413359,981.457176 766.584701,975.628473 L766.371493,975.415263 C760.542836,969.586561 760.542836,960.136702 766.371493,954.307999" id="Fill-121" fill="#171717"></path>
                <path d="M617.353281,1104.41512 L778.414748,943.353291 C784.219123,937.548903 793.630024,937.548903 799.434399,943.353291 L799.646719,943.565611 C805.451094,949.369514 805.451094,958.780436 799.646719,964.584824 L638.585252,1125.64665 C632.780877,1131.45104 623.369976,1131.45104 617.565601,1125.64713 L617.353281,1125.43433 C611.548906,1119.63043 611.548906,1110.21999 617.353281,1104.41512" id="Fill-123" fill="#424242"></path>
                <path d="M363.646719,1398.58488 L202.584767,1559.64706 C196.780877,1565.45098 187.369976,1565.45098 181.565601,1559.64706 L181.353281,1559.43474 C175.548906,1553.63034 175.548906,1544.21988 181.353281,1538.41548 L342.415233,1377.3533 C348.219607,1371.5489 357.630024,1371.5489 363.434399,1377.3533 L363.646719,1377.56562 C369.451094,1383.36954 369.451094,1392.78048 363.646719,1398.58488" id="Fill-125" fill="#7F7F7F"></path>
                <path d="M27.6899979,1734.33046 L27.3300512,1734.68993 C21.5833817,1740.43669 12.2665206,1740.43669 6.51985106,1734.68993 L6.30964217,1734.47972 C0.563452609,1728.73296 0.563452609,1719.41595 6.30964217,1713.66918 L6.6695889,1713.30971 C12.4162584,1707.56343 21.7331195,1707.56343 27.479789,1713.30971 L27.6899979,1713.51992 C33.4366674,1719.2662 33.4366674,1728.58369 27.6899979,1734.33046" id="Fill-127" fill="#7F7F7F"></path>
                <path d="M233.689981,1531.33046 L233.330512,1531.68993 C227.58382,1537.43669 218.266442,1537.43669 212.520229,1531.68993 L212.310019,1531.47972 C206.563327,1525.73296 206.563327,1516.41595 212.310019,1510.66918 L212.669488,1510.30971 C218.41618,1504.56343 227.733078,1504.56343 233.479771,1510.30971 L233.689981,1510.51992 C239.436673,1516.26668 239.436673,1525.58369 233.689981,1531.33046" id="Fill-129" fill="#171717"></path>
                <path d="M466.30995,1256.66944 L466.669893,1256.31045 C472.416493,1250.56326 481.733243,1250.56326 487.479843,1256.30997 L487.69005,1256.52018 C493.43665,1262.26688 493.43665,1271.5838 487.69005,1277.33098 L487.330587,1277.68997 C481.583987,1283.43668 472.266757,1283.43668 466.520157,1277.68997 L466.30995,1277.47976 C460.56335,1271.73354 460.56335,1262.41614 466.30995,1256.66944" id="Fill-131" fill="#171717"></path>
                <path d="M486.353281,1129.41543 L647.415233,968.352945 C653.219123,962.549018 662.630024,962.549018 668.434399,968.352945 L668.646719,968.565266 C674.451094,974.369678 674.451094,983.780155 668.646719,989.584566 L507.584767,1150.64705 C501.780393,1156.45098 492.369976,1156.45098 486.565116,1150.64705 L486.353281,1150.43473 C480.548906,1144.63032 480.548906,1135.21985 486.353281,1129.41543" id="Fill-133" fill="#171717"></path>
                <path d="M382.628503,1277.69224 L333.691884,1326.62845 C327.863221,1332.45718 318.412941,1332.45718 312.584279,1326.62845 L312.371071,1326.41524 C306.542895,1320.58651 306.542895,1311.13661 312.371558,1305.30788 L361.308177,1256.37118 C367.13684,1250.54294 376.58712,1250.54294 382.415782,1256.37118 L382.628503,1256.58488 C388.457166,1262.41312 388.457166,1271.86302 382.628503,1277.69224" id="Fill-135" fill="#424242"></path>
                <path d="M212.646731,1444.5848 L51.584755,1605.64668 C45.7803967,1611.45111 36.3695221,1611.45111 30.5651637,1605.64668 L30.3528446,1605.43436 C24.548971,1599.63042 24.548971,1590.21944 30.3533294,1584.41501 L191.415306,1423.35314 C197.219664,1417.54871 206.630054,1417.5492 212.434897,1423.35314 L212.646731,1423.56546 C218.45109,1429.36988 218.45109,1438.78038 212.646731,1444.5848" id="Fill-137" fill="#424242"></path>
                <path d="M421.353281,1193.41512 L582.415233,1032.35294 C588.219607,1026.54902 597.630024,1026.54902 603.434399,1032.35294 L603.646719,1032.56526 C609.451094,1038.36966 609.451094,1047.78012 603.646719,1053.58452 L442.584767,1214.6467 C436.780393,1220.4511 427.369976,1220.4511 421.565601,1214.6467 L421.353281,1214.43438 C415.548906,1208.63046 415.548906,1199.21952 421.353281,1193.41512" id="Fill-139" fill="#7F7F7F"></path>
                <path d="M554.310011,1062.66954 L554.669958,1062.31007 C560.416159,1056.56331 569.733519,1056.56331 575.47972,1062.31007 L575.690409,1062.52028 C581.43661,1068.26704 581.43661,1077.58405 575.689929,1083.33082 L575.330462,1083.69029 C569.583781,1089.43657 560.266901,1089.43657 554.52022,1083.69029 L554.310011,1083.48008 C548.56333,1077.73332 548.56333,1068.41631 554.310011,1062.66954" id="Fill-141" fill="#171717"></path>
                <path d="M281.689981,1376.33056 L281.330032,1376.69003 C275.58382,1382.43674 266.266442,1382.43674 260.520229,1376.68955 L260.310019,1376.47982 C254.563327,1370.73312 254.563327,1361.41572 260.310019,1355.66902 L260.669488,1355.31003 C266.41618,1349.56332 275.733078,1349.56332 281.480251,1355.31003 L281.689981,1355.52024 C287.436673,1361.26646 287.436673,1370.58386 281.689981,1376.33056" id="Fill-143" fill="#171717"></path>
                <path d="M997.628155,1202.69164 L948.691724,1251.62811 C942.863571,1257.4573 933.413327,1257.4573 927.584687,1251.62811 L927.37148,1251.41539 C921.54284,1245.58668 921.54284,1236.13634 927.37148,1230.30763 L976.307911,1181.37116 C982.136551,1175.54295 991.586795,1175.54295 997.415434,1181.37116 L997.628155,1181.58486 C1003.45728,1187.41307 1003.45728,1196.86293 997.628155,1202.69164" id="Fill-263" fill="#171717"></path>
                <path d="M827.646719,1372.58493 L666.585252,1533.64706 C660.780877,1539.45098 651.369976,1539.45098 645.565601,1533.64706 L645.353281,1533.43426 C639.548906,1527.63034 639.548906,1518.21989 645.353281,1512.41549 L806.415233,1351.35336 C812.219607,1345.54896 821.630024,1345.54896 827.434399,1351.35287 L827.646719,1351.56568 C833.451094,1357.36959 833.451094,1366.78053 827.646719,1372.58493" id="Fill-265" fill="#7F7F7F"></path>
                <path d="M509.646719,1690.58451 L348.585252,1851.64664 C342.780877,1857.45104 333.369976,1857.45104 327.565601,1851.64713 L327.353281,1851.43432 C321.548906,1845.63041 321.548906,1836.21995 327.353281,1830.41507 L488.415233,1669.35294 C494.219607,1663.54902 503.630024,1663.54902 509.434399,1669.35294 L509.646719,1669.56574 C515.451094,1675.36966 515.451094,1684.78011 509.646719,1690.58451" id="Fill-267" fill="#171717"></path>
                <path d="M565.650692,1634.56111 L436.561415,1763.65068 C430.762338,1769.44977 421.360026,1769.44977 415.561434,1763.65068 L415.349308,1763.43807 C409.550231,1757.63947 409.550231,1748.23762 415.349308,1742.43853 L544.438585,1613.34895 C550.237662,1607.55035 559.639489,1607.55035 565.438566,1613.34895 L565.650692,1613.56157 C571.449769,1619.36017 571.449769,1628.76202 565.650692,1634.56111" id="Fill-269" fill="#424242"></path>
                <path d="M293.689998,1906.33046 L293.330051,1906.68993 C287.583862,1912.43669 278.266521,1912.43669 272.519851,1906.68993 L272.309642,1906.4802 C266.563453,1900.73296 266.563453,1891.41595 272.309642,1885.66918 L272.669589,1885.30971 C278.416258,1879.56343 287.733119,1879.56343 293.479789,1885.30971 L293.689998,1885.5204 C299.436667,1891.26668 299.436667,1900.58369 293.689998,1906.33046" id="Fill-271" fill="#7F7F7F"></path>
                <path d="M493.689981,1708.33094 L493.330032,1708.68993 C487.58382,1714.43669 478.266442,1714.43669 472.520229,1708.68993 L472.310019,1708.4802 C466.563327,1702.73344 466.563327,1693.41595 472.310019,1687.66918 L472.669488,1687.30971 C478.41618,1681.56343 487.733078,1681.56343 493.479771,1687.30971 L493.689981,1687.5204 C499.436673,1693.26668 499.436673,1702.58369 493.689981,1708.33094" id="Fill-273" fill="#171717"></path>
                <path d="M1041.68967,1158.33046 L1041.33021,1158.68993 C1035.58358,1164.43669 1026.26632,1164.43669 1020.52017,1158.68993 L1020.30997,1158.47972 C1014.56334,1152.73296 1014.56334,1143.41595 1020.30997,1137.66918 L1020.66943,1137.30971 C1026.41606,1131.56343 1035.73332,1131.56343 1041.47995,1137.30971 L1041.68967,1137.51992 C1047.43678,1143.2662 1047.43678,1152.58369 1041.68967,1158.33046" id="Fill-275" fill="#424242"></path>
                <path d="M651.353281,1399.4155 L812.415233,1238.35293 C818.219607,1232.54902 827.630024,1232.54902 833.434399,1238.35293 L833.646719,1238.56574 C839.451094,1244.36965 839.451094,1253.7801 833.646719,1259.58499 L672.584767,1420.64707 C666.780877,1426.45098 657.369976,1426.45098 651.565601,1420.64707 L651.353281,1420.43426 C645.548906,1414.63035 645.548906,1405.2199 651.353281,1399.4155" id="Fill-277" fill="#171717"></path>
                <path d="M972.371473,1081.30825 L1021.30783,1032.37155 C1027.13695,1026.54282 1036.58669,1026.54282 1042.41532,1032.37155 L1042.62853,1032.58427 C1048.45716,1038.41349 1048.45716,1047.86339 1042.62853,1053.69212 L993.692171,1102.62882 C987.86354,1108.45706 978.413311,1108.45706 972.58468,1102.62882 L972.371473,1102.41561 C966.542842,1096.58688 966.542842,1087.13698 972.371473,1081.30825" id="Fill-279" fill="#424242"></path>
                <path d="M226.353281,1824.41548 L387.415233,1663.3533 C393.219123,1657.5489 402.630024,1657.5489 408.434399,1663.3533 L408.646719,1663.56562 C414.451094,1669.36954 414.451094,1678.78048 408.646719,1684.58488 L247.584767,1845.64706 C241.780393,1851.45098 232.369976,1851.45098 226.565601,1845.64706 L226.353281,1845.43426 C220.548906,1839.63034 220.548906,1830.21988 226.353281,1824.41548" id="Fill-281" fill="#424242"></path>
                <path d="M510.353281,1542.41543 L671.415233,1381.35295 C677.219123,1375.54902 686.630024,1375.54902 692.434399,1381.35295 L692.646719,1381.56527 C698.451094,1387.36919 698.451094,1396.78015 692.646719,1402.58457 L531.584767,1563.64705 C525.780393,1569.45098 516.369976,1569.45098 510.565601,1563.64705 L510.353281,1563.43473 C504.548906,1557.63032 504.548906,1548.21985 510.353281,1542.41543" id="Fill-283" fill="#7F7F7F"></path>
                <path d="M855.310002,1197.66952 L855.669949,1197.31005 C861.416618,1191.56332 870.733479,1191.56332 876.480149,1197.31005 L876.690358,1197.52026 C882.436547,1203.26698 882.436547,1212.58394 876.690358,1218.33066 L876.330411,1218.69013 C870.584222,1224.43638 861.266881,1224.43686 855.520211,1218.69013 L855.310002,1218.47992 C849.563333,1212.73368 849.563333,1203.41624 855.310002,1197.66952" id="Fill-285" fill="#7F7F7F"></path>
                <path d="M641.310019,1411.66954 L641.669968,1411.31007 C647.41618,1405.56331 656.733558,1405.56331 662.479771,1411.31007 L662.689981,1411.5198 C668.436673,1417.26704 668.436673,1426.58405 662.689981,1432.33082 L662.330512,1432.69029 C656.58382,1438.43657 647.266922,1438.43657 641.520229,1432.69029 L641.310019,1432.4796 C635.563327,1426.73332 635.563327,1417.41631 641.310019,1411.66954" id="Fill-287" fill="#171717"></path>
                <path d="M540.353281,1407.41512 L701.415233,1246.35294 C707.219123,1240.54902 716.630024,1240.54902 722.434399,1246.35294 L722.646719,1246.56526 C728.451094,1252.36966 728.451094,1261.78012 722.646719,1267.58452 L561.584767,1428.6467 C555.780393,1434.4511 546.369976,1434.4511 540.565601,1428.6467 L540.353281,1428.43438 C534.548906,1422.63046 534.548906,1413.21952 540.353281,1407.41512" id="Fill-289" fill="#171717"></path>
                <path d="M892.6285,1095.69175 L843.691842,1144.62845 C837.863176,1150.45718 828.413375,1150.45718 822.584708,1144.62845 L822.3715,1144.41573 C816.542833,1138.58651 816.542833,1129.13661 822.3715,1123.30788 L871.308158,1074.37118 C877.136824,1068.54294 886.586625,1068.54294 892.415292,1074.37118 L892.6285,1074.58439 C898.457167,1080.41312 898.457167,1089.86302 892.6285,1095.69175" id="Fill-291" fill="#171717"></path>
                <path d="M131.353281,1814.4155 L292.415233,1653.35293 C298.219123,1647.54902 307.630024,1647.54902 313.434399,1653.35293 L313.646719,1653.56574 C319.451094,1659.36965 319.451094,1668.7801 313.646719,1674.58499 L152.584767,1835.64707 C146.780393,1841.45098 137.369976,1841.45098 131.565601,1835.64707 L131.353281,1835.43426 C125.548906,1829.63035 125.548906,1820.2199 131.353281,1814.4155" id="Fill-293" fill="#7F7F7F"></path>
                <path d="M401.353281,1546.41501 L562.414748,1385.35293 C568.219123,1379.54902 577.630024,1379.54902 583.434399,1385.35293 L583.646719,1385.56574 C589.451094,1391.36965 589.451094,1400.7801 583.646719,1406.58499 L422.584767,1567.64707 C416.780393,1573.45098 407.369976,1573.45098 401.565601,1567.64707 L401.353281,1567.43426 C395.548906,1561.63035 395.548906,1552.2199 401.353281,1546.41501" id="Fill-295" fill="#424242"></path>
                <path d="M112.69005,1875.33063 L112.330107,1875.68962 C106.583507,1881.43679 97.2667573,1881.43679 91.5201568,1875.68962 L91.3099504,1875.47989 C85.5633499,1869.7332 85.5633499,1860.41582 91.3099504,1854.66913 L91.6698928,1854.30966 C97.4160134,1848.56345 106.733243,1848.56345 112.479843,1854.30966 L112.69005,1854.52035 C118.43665,1860.26656 118.43665,1869.58346 112.69005,1875.33063" id="Fill-297" fill="#171717"></path>
                <path d="M419.310019,1528.66954 L419.669968,1528.31007 C425.41618,1522.56331 434.733558,1522.56331 440.479771,1528.31007 L440.689981,1528.52028 C446.436673,1534.26704 446.436673,1543.58405 440.689981,1549.3313 L440.330512,1549.69029 C434.58382,1555.43657 425.266922,1555.43657 419.520229,1549.69029 L419.310019,1549.48008 C413.563327,1543.7338 413.563327,1534.41631 419.310019,1528.66954" id="Fill-299" fill="#171717"></path>
                <path d="M936.689981,1055.33052 L936.330032,1055.68999 C930.58382,1061.43667 921.266442,1061.43667 915.520229,1055.68999 L915.310019,1055.47978 C909.563327,1049.7331 909.563327,1040.41622 915.310019,1034.66906 L915.669488,1034.31007 C921.41618,1028.56339 930.733078,1028.56339 936.479771,1034.30959 L936.689981,1034.52028 C942.436673,1040.26648 942.436673,1049.58384 936.689981,1055.33052" id="Fill-301" fill="#424242"></path>
                <path d="M228.646719,1652.58457 L67.5847675,1813.64705 C61.7803926,1819.45098 52.3699758,1819.45098 46.5656009,1813.64705 L46.3532812,1813.43473 C40.5489063,1807.63032 40.5489063,1798.21985 46.3532812,1792.41543 L207.415233,1631.35295 C213.219607,1625.54902 222.630024,1625.54902 228.434399,1631.35295 L228.646719,1631.56527 C234.451094,1637.36968 234.451094,1646.78015 228.646719,1652.58457" id="Fill-303" fill="#171717"></path>
                <path d="M683.6285,1198.69175 L634.691842,1247.62845 C628.863176,1253.45718 619.413375,1253.45718 613.584708,1247.62845 L613.3715,1247.41573 C607.542833,1241.58651 607.542833,1232.13661 613.3715,1226.30788 L662.308158,1177.37118 C668.136824,1171.54294 677.586625,1171.54294 683.415292,1177.37118 L683.6285,1177.58439 C689.457167,1183.41312 689.457167,1192.86302 683.6285,1198.69175" id="Fill-305" fill="#7F7F7F"></path>
                <path d="M812.3715,1029.30836 L861.308158,980.371892 C867.136824,974.542703 876.586625,974.542703 882.415292,980.371892 L882.6285,980.584615 C888.457167,986.413318 888.457167,995.863663 882.6285,1001.69237 L833.691842,1050.62884 C827.863176,1056.45705 818.413375,1056.45705 812.584708,1050.62884 L812.3715,1050.41514 C806.542833,1044.58693 806.542833,1035.13707 812.3715,1029.30836" id="Fill-307" fill="#171717"></path>
                <path d="M517.646719,1367.58451 L356.584767,1528.64664 C350.780393,1534.45104 341.369491,1534.45104 335.565601,1528.64713 L335.353281,1528.43432 C329.548906,1522.63041 329.548906,1513.21947 335.353281,1507.41507 L496.415233,1346.35294 C502.219607,1340.54902 511.630024,1340.54902 517.434399,1346.35294 L517.646719,1346.56574 C523.451094,1352.36966 523.451094,1361.78011 517.646719,1367.58451" id="Fill-309" fill="#424242"></path>
                <path d="M293.646719,1591.58488 L132.584767,1752.64706 C126.780393,1758.45098 117.369976,1758.45098 111.565601,1752.64706 L111.353281,1752.43426 C105.548906,1746.63034 105.548906,1737.21988 111.353281,1731.41548 L272.415233,1570.3533 C278.219607,1564.5489 287.630024,1564.5489 293.434399,1570.3533 L293.646719,1570.56562 C299.451094,1576.36954 299.451094,1585.78048 293.646719,1591.58488" id="Fill-311" fill="#7F7F7F"></path>
                <path d="M748.30995,1092.66954 L748.669893,1092.31007 C754.416493,1086.56331 763.733243,1086.56331 769.479843,1092.31007 L769.69005,1092.5198 C775.43665,1098.26704 775.43665,1107.58405 769.69005,1113.33082 L769.330107,1113.69029 C763.583987,1119.43657 754.266757,1119.43657 748.520157,1113.69029 L748.30995,1113.4796 C742.56335,1107.73332 742.56335,1098.41631 748.30995,1092.66954" id="Fill-313" fill="#424242"></path>
                <path d="M162.689998,1720.33046 L162.330051,1720.68993 C156.583382,1726.43669 147.266521,1726.43669 141.519851,1720.68993 L141.309642,1720.47972 C135.563453,1714.73296 135.563453,1705.41595 141.309642,1699.66918 L141.669589,1699.30971 C147.416258,1693.56343 156.733119,1693.56343 162.479789,1699.30971 L162.689998,1699.51992 C168.436667,1705.2662 168.436667,1714.58369 162.689998,1720.33046" id="Fill-315" fill="#171717"></path>
                <path d="M581.689998,1299.33063 L581.330051,1299.68962 C575.583382,1305.43679 566.266521,1305.43679 560.519851,1299.68962 L560.309642,1299.47989 C554.563453,1293.7332 554.563453,1284.41582 560.309642,1278.66913 L560.669589,1278.30966 C566.416258,1272.56345 575.733119,1272.56345 581.479789,1278.30966 L581.689998,1278.52035 C587.436667,1284.26656 587.436667,1293.58346 581.689998,1299.33063" id="Fill-317" fill="#171717"></path>
                <path d="M1000.37185,1262.308 L1049.30779,1213.37153 C1055.13692,1207.54282 1064.58667,1207.54282 1070.41531,1213.37153 L1070.62852,1213.58474 C1076.45716,1219.41344 1076.45716,1228.8633 1070.62852,1234.692 L1021.69209,1283.62847 C1015.86345,1289.45718 1006.41321,1289.45718 1000.58457,1283.62847 L1000.37185,1283.41526 C994.542718,1277.58705 994.542718,1268.1367 1000.37185,1262.308" id="Fill-319" fill="#424242"></path>
                <path d="M369.353281,1892.41512 L530.415233,1731.35294 C536.219607,1725.54902 545.630509,1725.54902 551.434399,1731.35294 L551.646719,1731.56574 C557.451094,1737.36966 557.451094,1746.78012 551.646719,1752.58452 L390.584767,1913.6467 C384.780877,1919.4511 375.369976,1919.4511 369.565601,1913.6467 L369.353281,1913.43438 C363.548906,1907.63046 363.548906,1898.21952 369.353281,1892.41512" id="Fill-321" fill="#7F7F7F"></path>
                <path d="M689.353281,1572.41548 L850.415233,1411.3533 C856.219123,1405.5489 865.630024,1405.5489 871.434399,1411.3533 L871.646719,1411.56562 C877.451094,1417.36954 877.451094,1426.78048 871.646719,1432.58488 L710.584767,1593.64706 C704.780393,1599.45098 695.369976,1599.45098 689.565601,1593.64706 L689.353281,1593.43426 C683.548906,1587.63034 683.548906,1578.21988 689.353281,1572.41548" id="Fill-323" fill="#171717"></path>
                <path d="M685.349308,1574.43889 L814.438585,1445.34932 C820.237662,1439.55023 829.639974,1439.55023 835.438566,1445.34932 L835.650692,1445.56193 C841.449769,1451.36053 841.449769,1460.76238 835.650692,1466.56196 L706.561415,1595.65105 C700.762338,1601.44965 691.360511,1601.44965 685.561434,1595.65105 L685.349308,1595.43892 C679.550231,1589.63983 679.550231,1580.23798 685.349308,1574.43889" id="Fill-325" fill="#424242"></path>
                <path d="M935.310002,1326.66954 L935.669949,1326.31007 C941.416618,1320.56331 950.733479,1320.56331 956.480149,1326.31007 L956.690358,1326.52028 C962.436547,1332.26704 962.436547,1341.58405 956.690358,1347.33082 L956.330411,1347.69029 C950.583742,1353.43657 941.266881,1353.43657 935.520211,1347.69029 L935.310002,1347.48008 C929.563333,1341.73332 929.563333,1332.41631 935.310002,1326.66954" id="Fill-327" fill="#7F7F7F"></path>
                <path d="M705.310019,1556.66954 L705.669968,1556.31007 C711.41618,1550.56331 720.733558,1550.56331 726.479771,1556.31007 L726.689981,1556.5198 C732.436673,1562.26656 732.436673,1571.58405 726.689981,1577.33082 L726.330512,1577.69029 C720.58382,1583.43657 711.266922,1583.43657 705.520229,1577.69029 L705.310019,1577.4796 C699.563327,1571.73332 699.563327,1562.41631 705.310019,1556.66954" id="Fill-329" fill="#171717"></path>
                <path d="M832.371497,1535.30825 L881.308116,1486.37155 C887.136779,1480.54282 896.586572,1480.54282 902.415234,1486.37155 L902.628442,1486.58427 C908.457105,1492.413 908.457105,1501.86339 902.628929,1507.69212 L853.691823,1556.62882 C847.863647,1562.45706 838.413367,1562.45706 832.584705,1556.62882 L832.371497,1556.41561 C826.542834,1550.58736 826.542834,1541.13698 832.371497,1535.30825" id="Fill-331" fill="#7F7F7F"></path>
                <path d="M1088.37142,1279.3083 L1137.30781,1230.37172 C1143.13644,1224.543 1152.58668,1224.54252 1158.41532,1230.37172 L1158.62852,1230.58444 C1164.45716,1236.41316 1164.45716,1245.86304 1158.62852,1251.69224 L1109.69213,1300.62883 C1103.86349,1306.45706 1094.41326,1306.45706 1088.58462,1300.62883 L1088.3719,1300.41562 C1082.54278,1294.5869 1082.54278,1285.13702 1088.37142,1279.3083" id="Fill-333" fill="#171717"></path>
                <path d="M941.353281,1429.4155 L1102.41475,1268.35293 C1108.21912,1262.54902 1117.63002,1262.54902 1123.4344,1268.35293 L1123.64672,1268.56525 C1129.45109,1274.36917 1129.45109,1283.7801 1123.64672,1289.5845 L962.584767,1450.64707 C956.780877,1456.45098 947.369976,1456.45098 941.565601,1450.64707 L941.353281,1450.43426 C935.548906,1444.63035 935.548906,1435.2199 941.353281,1429.4155" id="Fill-335" fill="#424242"></path>
                <path d="M688.646719,1722.58457 L527.584767,1883.64705 C521.780393,1889.45098 512.369976,1889.45098 506.565601,1883.64705 L506.353281,1883.43473 C500.548906,1877.63081 500.548906,1868.21985 506.353281,1862.41543 L667.415233,1701.35295 C673.219607,1695.54902 682.630024,1695.54902 688.434399,1701.35295 L688.646719,1701.56527 C694.451094,1707.36968 694.451094,1716.78015 688.646719,1722.58457" id="Fill-337" fill="#7F7F7F"></path>
                <path d="M557.689989,1853.33046 L557.330042,1853.68993 C551.583841,1859.43669 542.266481,1859.43669 536.5198,1853.68993 L536.309591,1853.4802 C530.56339,1847.73296 530.56339,1838.41595 536.310071,1832.66918 L536.669538,1832.30971 C542.416219,1826.56343 551.733099,1826.56343 557.47978,1832.30971 L557.689989,1832.5204 C563.43667,1838.26668 563.43667,1847.58369 557.689989,1853.33046" id="Fill-339" fill="#171717"></path>
                <path d="M790.30995,1578.66922 L790.669893,1578.31023 C796.416013,1572.5635 805.733243,1572.56302 811.479843,1578.31023 L811.69005,1578.51996 C817.43665,1584.26668 817.43665,1593.58364 811.69005,1599.33084 L811.330107,1599.69031 C805.583987,1605.43656 796.266757,1605.43656 790.520157,1599.69031 L790.30995,1599.47962 C784.56335,1593.73338 784.56335,1584.41642 790.30995,1578.66922" id="Fill-341" fill="#171717"></path>
                <path d="M799.646719,1718.58488 L638.584767,1879.64706 C632.780877,1885.45098 623.369976,1885.45098 617.565601,1879.64706 L617.353281,1879.43426 C611.548906,1873.63034 611.548906,1864.21988 617.353281,1858.41548 L778.415233,1697.3533 C784.219607,1691.5489 793.630024,1691.5489 799.434399,1697.3533 L799.646719,1697.56562 C805.451094,1703.36954 805.451094,1712.78048 799.646719,1718.58488" id="Fill-343" fill="#424242"></path>
                <path d="M951.6285,1563.69208 L902.691842,1612.62848 C896.863176,1618.45717 887.413375,1618.45717 881.584708,1612.62848 L881.3715,1612.41527 C875.542833,1606.58658 875.542833,1597.13673 881.3715,1591.30755 L930.308158,1542.37116 C936.136824,1536.54295 945.586625,1536.54295 951.415778,1542.37116 L951.6285,1542.58485 C957.457167,1548.41306 957.457167,1557.8629 951.6285,1563.69208" id="Fill-345" fill="#424242"></path>
                <path d="M1038.35364,1435.41543 L1199.4156,1274.35295 C1205.21949,1268.54902 1214.63039,1268.54902 1220.43428,1274.35295 L1220.64708,1274.56527 C1226.45097,1280.36919 1226.45097,1289.78015 1220.64708,1295.58457 L1059.58513,1456.64705 C1053.78076,1462.45098 1044.36985,1462.45098 1038.56548,1456.64705 L1038.35364,1456.43425 C1032.54879,1450.63032 1032.54879,1441.21985 1038.35364,1435.41543" id="Fill-347" fill="#7F7F7F"></path>
                <path d="M1017.69,1496.33063 L1017.33005,1496.68962 C1011.58338,1502.43679 1002.26652,1502.43679 996.519851,1496.68962 L996.309642,1496.47989 C990.563453,1490.7332 990.563453,1481.41582 996.309642,1475.66913 L996.669589,1475.30966 C1002.41626,1469.56345 1011.73312,1469.56345 1017.47979,1475.30966 L1017.69,1475.52035 C1023.43667,1481.26656 1023.43667,1490.58346 1017.69,1496.33063" id="Fill-349" fill="#171717"></path>
                <path d="M779.689981,1736.33046 L779.330032,1736.68993 C773.58382,1742.43669 764.266442,1742.43669 758.520229,1736.68993 L758.310019,1736.4802 C752.563327,1730.73296 752.563327,1721.41595 758.310019,1715.66918 L758.669488,1715.30971 C764.41618,1709.56343 773.733078,1709.56343 779.480251,1715.30971 L779.689981,1715.5204 C785.436673,1721.26668 785.436673,1730.58369 779.689981,1736.33046" id="Fill-351" fill="#171717"></path>
                <path d="M968.353278,1610.41507 L1129.41561,1449.35294 C1135.2195,1443.54902 1144.62991,1443.54902 1150.43428,1449.35294 L1150.64709,1449.56574 C1156.45097,1455.36966 1156.45097,1464.78011 1150.64709,1470.58499 L989.585236,1631.64664 C983.78038,1637.45104 974.369969,1637.45104 968.565598,1631.64713 L968.353278,1631.43432 C962.548907,1625.63041 962.548907,1616.21947 968.353278,1610.41507" id="Fill-353" fill="#171717"></path>
                <path d="M864.628527,1757.69204 L815.691684,1806.6281 C809.863053,1812.4573 800.413311,1812.4573 794.58468,1806.6281 L794.371473,1806.41538 C788.542842,1800.58618 788.542842,1791.13631 794.371473,1785.30759 L843.308316,1736.37153 C849.136947,1730.54282 858.586689,1730.54282 864.41532,1736.37153 L864.628527,1736.58474 C870.457158,1742.41297 870.457158,1751.86333 864.628527,1757.69204" id="Fill-355" fill="#424242"></path>
                <path d="M905.35328,1673.41501 L1066.41518,1512.35293 C1072.21907,1506.54902 1081.62997,1506.54902 1087.43434,1512.35293 L1087.64714,1512.56574 C1093.45103,1518.36965 1093.45103,1527.78059 1087.64666,1533.58499 L926.584759,1694.64707 C920.780386,1700.45098 911.369973,1700.45098 905.565599,1694.64707 L905.35328,1694.43426 C899.548907,1688.63035 899.548907,1679.2199 905.35328,1673.41501" id="Fill-357" fill="#7F7F7F"></path>
                <path d="M1034.31038,1544.66942 L1034.66984,1544.31043 C1040.41645,1538.56327 1049.7337,1538.56327 1055.47983,1544.30995 L1055.69004,1544.52016 C1061.43665,1550.26684 1061.43665,1559.5842 1055.69004,1565.33088 L1055.33058,1565.69035 C1049.58397,1571.43655 1040.26672,1571.43655 1034.52011,1565.69035 L1034.3099,1565.47966 C1028.56329,1559.73346 1028.56329,1550.41658 1034.31038,1544.66942" id="Fill-359" fill="#171717"></path>
                <path d="M765.690024,1855.33046 L765.330079,1855.68993 C759.583444,1861.43669 750.266639,1861.43669 744.520004,1855.68993 L744.309796,1855.47972 C738.563161,1849.73296 738.563641,1840.41595 744.309796,1834.66918 L744.669741,1834.30971 C750.416376,1828.56343 759.733181,1828.56343 765.479816,1834.30971 L765.690024,1834.5204 C771.436659,1840.26668 771.436659,1849.58369 765.690024,1855.33046" id="Fill-361" fill="#171717"></path>
                <path d="M1183.37185,1395.30825 L1232.30828,1346.37155 C1238.13692,1340.54282 1247.58667,1340.54282 1253.4158,1346.37155 L1253.62852,1346.58427 C1259.45716,1352.413 1259.45716,1361.86339 1253.62852,1367.69212 L1204.69209,1416.62882 C1198.86345,1422.45706 1189.41321,1422.45706 1183.58457,1416.62882 L1183.37185,1416.41561 C1177.54272,1410.58688 1177.54272,1401.13698 1183.37185,1395.30825" id="Fill-363" fill="#7F7F7F"></path>
                <path d="M1284.31,1294.66937 L1284.66995,1294.31038 C1290.41662,1288.56321 1299.73396,1288.56321 1305.48015,1294.31038 L1305.69036,1294.52011 C1311.43655,1300.2668 1311.43655,1309.58418 1305.69036,1315.33087 L1305.33089,1315.69034 C1299.58374,1321.43655 1290.26688,1321.43655 1284.52021,1315.69034 L1284.31,1315.47965 C1278.56333,1309.73344 1278.56333,1300.41654 1284.31,1294.66937" id="Fill-365" fill="#171717"></path>
                <path d="M1418.6285,1623.692 L1369.69184,1672.62847 C1363.86318,1678.45718 1354.41338,1678.45718 1348.58422,1672.62847 L1348.3715,1672.41526 C1342.54283,1666.58656 1342.54283,1657.1367 1348.3715,1651.308 L1397.30816,1602.37153 C1403.13682,1596.54282 1412.58662,1596.54282 1418.41578,1602.37153 L1418.6285,1602.58474 C1424.45717,1608.41295 1424.45717,1617.8633 1418.6285,1623.692" id="Fill-367" fill="#171717"></path>
                <path d="M1462.69,1579.33078 L1462.33053,1579.68977 C1456.58338,1585.4365 1447.26652,1585.43698 1441.52033,1579.68977 L1441.30964,1579.48004 C1435.56345,1573.73332 1435.56345,1564.41588 1441.30964,1558.66916 L1441.66959,1558.30969 C1447.41626,1552.56344 1456.73312,1552.56344 1462.48027,1558.30969 L1462.69,1558.52038 C1468.43667,1564.26662 1468.43667,1573.58358 1462.69,1579.33078" id="Fill-369" fill="#424242"></path>
                <path d="M1393.37148,1502.30792 L1442.30791,1453.37152 C1448.13655,1447.54283 1457.58679,1447.54283 1463.41543,1453.37152 L1463.62815,1453.58473 C1469.45728,1459.41342 1469.45728,1468.86327 1463.62815,1474.69245 L1414.69221,1523.62884 C1408.86308,1529.45705 1399.41333,1529.45705 1393.58469,1523.62884 L1393.37148,1523.41515 C1387.54284,1517.58694 1387.54284,1508.1371 1393.37148,1502.30792" id="Fill-371" fill="#424242"></path>
                <path d="M1274.31,1619.66954 L1274.66995,1619.31007 C1280.41662,1613.56331 1289.73348,1613.56331 1295.48015,1619.31007 L1295.69036,1619.5198 C1301.43655,1625.26704 1301.43655,1634.58405 1295.69036,1640.33082 L1295.33089,1640.69029 C1289.58422,1646.43657 1280.26688,1646.43657 1274.52021,1640.69029 L1274.31,1640.4796 C1268.56333,1634.73332 1268.56333,1625.41631 1274.31,1619.66954" id="Fill-373" fill="#7F7F7F"></path>
                <path d="M1062.31033,1834.66949 L1062.66979,1834.31002 C1068.41642,1828.56333 1077.73368,1828.56333 1083.47983,1834.31002 L1083.69003,1834.52023 C1089.43666,1840.26692 1089.43666,1849.58382 1083.69003,1855.33099 L1083.33057,1855.68998 C1077.58394,1861.43667 1068.26668,1861.43667 1062.52005,1855.68998 L1062.31033,1855.47977 C1056.56322,1849.73356 1056.56322,1840.41618 1062.31033,1834.66949" id="Fill-375" fill="#171717"></path>
                <path d="M963.353289,1828.41548 L1124.41555,1667.3533 C1130.21945,1661.5489 1139.63037,1661.5489 1145.43427,1667.3533 L1145.64707,1667.56562 C1151.45098,1673.36954 1151.45098,1682.78048 1145.64707,1688.58488 L984.584816,1849.64706 C978.78043,1855.45098 969.369511,1855.45098 963.565125,1849.64706 L963.353289,1849.43426 C957.548904,1843.63034 957.548904,1834.21988 963.353289,1828.41548" id="Fill-377" fill="#171717"></path>
                <path d="M1314.6285,1519.69208 L1265.69184,1568.62848 C1259.86318,1574.45717 1250.41338,1574.45717 1244.58422,1568.62848 L1244.3715,1568.41527 C1238.54283,1562.58658 1238.54283,1553.13673 1244.3715,1547.30804 L1293.30816,1498.37116 C1299.13682,1492.54295 1308.58662,1492.54295 1314.41529,1498.37116 L1314.6285,1498.58485 C1320.45717,1504.41306 1320.45717,1513.8629 1314.6285,1519.69208" id="Fill-379" fill="#171717"></path>
                <path d="M1357.69,1474.33046 L1357.33005,1474.68993 C1351.58338,1480.43669 1342.26652,1480.43669 1336.52033,1474.68993 L1336.30964,1474.4802 C1330.56345,1468.73344 1330.56345,1459.41595 1336.30964,1453.66918 L1336.66959,1453.30971 C1342.41626,1447.56343 1351.73312,1447.56343 1357.47979,1453.30971 L1357.69,1453.5204 C1363.43667,1459.26668 1363.43667,1468.58369 1357.69,1474.33046" id="Fill-381" fill="#424242"></path>
                <path d="M1104.62852,1619.69208 L1055.69209,1668.62848 C1049.86345,1674.45717 1040.41321,1674.45717 1034.58457,1668.62848 L1034.37185,1668.41527 C1028.54272,1662.58658 1028.54272,1653.13673 1034.37185,1647.30755 L1083.30779,1598.37116 C1089.13692,1592.54295 1098.58667,1592.54295 1104.41531,1598.37116 L1104.62852,1598.58485 C1110.45716,1604.41306 1110.45716,1613.8629 1104.62852,1619.69208" id="Fill-383" fill="#7F7F7F"></path>
                <path d="M1234.37185,1450.30792 L1283.30779,1401.37152 C1289.13692,1395.54283 1298.58667,1395.54283 1304.41531,1401.37152 L1304.62852,1401.58473 C1310.45716,1407.41342 1310.45716,1416.86327 1304.62852,1422.69245 L1255.69209,1471.62884 C1249.86345,1477.45705 1240.41321,1477.45705 1234.58457,1471.62884 L1234.37185,1471.41515 C1228.54272,1465.58694 1228.54272,1456.13661 1234.37185,1450.30792" id="Fill-385" fill="#171717"></path>
                <path d="M1169.31,1512.66948 L1169.66947,1512.31001 C1175.41662,1506.56333 1184.73348,1506.56333 1190.47967,1512.31001 L1190.69036,1512.52022 C1196.43655,1518.2669 1196.43655,1527.58426 1190.69036,1533.33094 L1190.33041,1533.68993 C1184.58374,1539.43661 1175.26688,1539.43661 1169.51973,1533.69041 L1169.31,1533.47972 C1163.56333,1527.73352 1163.56333,1518.41616 1169.31,1512.66948" id="Fill-387" fill="#424242"></path>
                <path d="M1005.69,1720.33046 L1005.33053,1720.68993 C999.583382,1726.43669 990.266521,1726.43669 984.520331,1720.68993 L984.309642,1720.47972 C978.563453,1714.73296 978.563453,1705.41595 984.309642,1699.66918 L984.669589,1699.30971 C990.416258,1693.56343 999.733119,1693.56343 1005.48027,1699.30971 L1005.69,1699.51992 C1011.43667,1705.26668 1011.43667,1714.58369 1005.69,1720.33046" id="Fill-389" fill="#171717"></path>
                <path d="M1473.3719,1738.30825 L1522.30781,1689.37155 C1528.13693,1683.54282 1537.58668,1683.54282 1543.41532,1689.37155 L1543.62852,1689.58427 C1549.45716,1695.413 1549.45716,1704.86339 1543.62852,1710.69212 L1494.69213,1759.62882 C1488.86349,1765.45706 1479.41326,1765.45706 1473.58462,1759.62882 L1473.37142,1759.41561 C1467.54278,1753.58688 1467.54278,1744.13698 1473.3719,1738.30825" id="Fill-391" fill="#424242"></path>
                <path d="M1409.31,1800.66954 L1409.66947,1800.31007 C1415.41662,1794.56331 1424.73348,1794.56331 1430.47967,1800.31007 L1430.69036,1800.5198 C1436.43655,1806.26704 1436.43655,1815.58405 1430.69036,1821.33082 L1430.33041,1821.69029 C1424.58374,1827.43657 1415.26688,1827.43657 1409.51973,1821.69029 L1409.31,1821.4796 C1403.56333,1815.73332 1403.56333,1806.41631 1409.31,1800.66954" id="Fill-393" fill="#7F7F7F"></path>
                <path d="M1669.37142,1857.30838 L1718.30781,1808.37195 C1724.13644,1802.54276 1733.58668,1802.54276 1739.41532,1808.37146 L1739.62852,1808.58467 C1745.45716,1814.41337 1745.45716,1823.86322 1739.62852,1829.69241 L1690.69213,1878.62884 C1684.86349,1884.45705 1675.41326,1884.45705 1669.58462,1878.62884 L1669.3719,1878.41515 C1663.54278,1872.58693 1663.54278,1863.13708 1669.37142,1857.30838" id="Fill-395" fill="#171717"></path>
                <path d="M1355.35328,1751.41512 L1516.41518,1590.35294 C1522.21907,1584.54902 1531.62997,1584.54902 1537.43434,1590.35294 L1537.64714,1590.56574 C1543.45103,1596.36966 1543.45103,1605.78012 1537.64666,1611.58452 L1376.58524,1772.6467 C1370.78039,1778.4511 1361.36997,1778.4511 1355.5656,1772.6467 L1355.35328,1772.43438 C1349.54891,1766.63046 1349.54891,1757.21952 1355.35328,1751.41512" id="Fill-397" fill="#7F7F7F"></path>
                <path d="M1333.68967,1815.33046 L1333.33021,1815.68993 C1327.58358,1821.43669 1318.26632,1821.43669 1312.52017,1815.68993 L1312.30997,1815.47972 C1306.56334,1809.73296 1306.56334,1800.41595 1312.30997,1794.66918 L1312.66943,1794.30971 C1318.41606,1788.56343 1327.73332,1788.56343 1333.47995,1794.30971 L1333.68967,1794.51992 C1339.43678,1800.26668 1339.43678,1809.58369 1333.68967,1815.33046" id="Fill-399" fill="#171717"></path>
                <path d="M1552.37147,1764.30796 L1601.30783,1715.37152 C1607.13646,1709.54283 1616.58669,1709.54283 1622.41532,1715.37152 L1622.62853,1715.58473 C1628.45716,1721.41343 1628.45716,1730.86328 1622.62853,1736.69247 L1573.69217,1785.62842 C1567.86305,1791.45711 1558.41331,1791.45711 1552.58468,1785.6289 L1552.37147,1785.41521 C1546.54284,1779.58699 1546.54284,1770.13666 1552.37147,1764.30796" id="Fill-401" fill="#7F7F7F"></path>
                <path d="M1653.31,1663.66954 L1653.66947,1663.31007 C1659.41662,1657.56331 1668.73348,1657.56331 1674.47967,1663.31007 L1674.69036,1663.52028 C1680.43655,1669.26704 1680.43655,1678.58405 1674.69036,1684.33082 L1674.33041,1684.69029 C1668.58374,1690.43657 1659.26688,1690.43657 1653.52021,1684.69029 L1653.31,1684.48008 C1647.56333,1678.73332 1647.56333,1669.41631 1653.31,1663.66954" id="Fill-403" fill="#171717"></path>
                <path d="M1578.37185,1843.30825 L1627.30779,1794.37155 C1633.13692,1788.54282 1642.58667,1788.54282 1648.41531,1794.37155 L1648.62852,1794.58427 C1654.45716,1800.41349 1654.45716,1809.86339 1648.62852,1815.69212 L1599.69209,1864.62882 C1593.86345,1870.45706 1584.41321,1870.45706 1578.58457,1864.62882 L1578.37185,1864.41561 C1572.54272,1858.58688 1572.54272,1849.13698 1578.37185,1843.30825" id="Fill-405" fill="#424242"></path>
                <path d="M1663.37185,1758.308 L1712.30779,1709.37153 C1718.13692,1703.54282 1727.58667,1703.54282 1733.41531,1709.37153 L1733.62852,1709.58474 C1739.45716,1715.41344 1739.45716,1724.8633 1733.62852,1730.692 L1684.69209,1779.62847 C1678.86345,1785.45718 1669.41321,1785.45718 1663.58457,1779.62847 L1663.37185,1779.41526 C1657.54272,1773.58705 1657.54272,1764.1367 1663.37185,1758.308" id="Fill-407" fill="#7F7F7F"></path>
                <path d="M1538.31032,1885.66949 L1538.66978,1885.31002 C1544.41639,1879.56333 1553.73364,1879.56333 1559.47977,1885.31002 L1559.69046,1885.52023 C1565.43659,1891.26692 1565.43659,1900.58382 1559.68998,1906.33099 L1559.33052,1906.68998 C1553.58391,1912.43667 1544.26666,1912.43667 1538.52005,1906.68998 L1538.31032,1906.47977 C1532.56323,1900.73356 1532.56323,1891.41618 1538.31032,1885.66949" id="Fill-409" fill="#7F7F7F"></path>
                <path d="M1812.31,1820.66949 L1812.66995,1820.31002 C1818.41662,1814.56333 1827.73348,1814.56333 1833.48015,1820.31002 L1833.69036,1820.52023 C1839.43655,1826.26692 1839.43655,1835.58382 1833.69036,1841.33099 L1833.33089,1841.68998 C1827.58374,1847.43667 1818.26688,1847.43667 1812.52021,1841.68998 L1812.31,1841.47977 C1806.56333,1835.73356 1806.56333,1826.41618 1812.31,1820.66949" id="Fill-411" fill="#171717"></path>
                <path d="M1231.6285,968.692001 L1182.69184,1017.62847 C1176.86318,1023.45718 1167.41338,1023.45718 1161.58422,1017.62847 L1161.3715,1017.41526 C1155.54283,1011.58656 1155.54283,1002.1367 1161.3715,996.307512 L1210.30816,947.371527 C1216.13682,941.542824 1225.58662,941.542824 1231.41529,947.371527 L1231.6285,947.584737 C1237.45717,953.412953 1237.45717,962.862811 1231.6285,968.692001" id="Fill-413" fill="#424242"></path>
                <path d="M1162.62813,1142.69164 L1113.69188,1191.62811 C1107.86321,1197.4573 1098.4129,1197.4573 1092.58423,1191.62811 L1092.37151,1191.41539 C1086.54283,1185.58668 1086.54283,1176.13634 1092.37151,1170.30763 L1141.30775,1121.37116 C1147.13643,1115.54295 1156.58673,1115.54295 1162.41541,1121.37116 L1162.62813,1121.58437 C1168.45729,1127.41307 1168.45729,1136.86293 1162.62813,1142.69164" id="Fill-473" fill="#171717"></path>
                <path d="M1373.6467,932.584824 L1212.58452,1093.64665 C1206.7806,1099.45104 1197.36966,1099.45104 1191.56574,1093.64713 L1191.35294,1093.43433 C1185.54902,1087.63043 1185.54902,1078.21999 1191.35294,1072.41512 L1352.41512,911.353291 C1358.21952,905.548903 1367.63046,905.548903 1373.43486,911.353291 L1373.6467,911.565611 C1379.4511,917.369999 1379.4511,926.780436 1373.6467,932.584824" id="Fill-475" fill="#7F7F7F"></path>
                <path d="M1581.64636,831.584881 L1420.5844,992.647063 C1414.78051,998.450979 1405.36961,998.450979 1399.56572,992.647063 L1399.35292,992.434742 C1393.54903,986.630342 1393.54903,977.219883 1399.35292,971.415482 L1560.41487,810.353301 C1566.21924,804.5489 1575.63015,804.5489 1581.43452,810.353301 L1581.64636,810.565621 C1587.45121,816.370022 1587.45121,825.78048 1581.64636,831.584881" id="Fill-485" fill="#171717"></path>
                <path d="M1257.62853,1152.69208 L1208.69217,1201.62848 C1202.86305,1207.45717 1193.41331,1207.45717 1187.58468,1201.62848 L1187.37147,1201.41527 C1181.54284,1195.58658 1181.54284,1186.13673 1187.37147,1180.30755 L1236.30783,1131.37116 C1242.13646,1125.54295 1251.58669,1125.54295 1257.41532,1131.37116 L1257.62853,1131.58485 C1263.45716,1137.41306 1263.45716,1146.8629 1257.62853,1152.69208" id="Fill-489" fill="#424242"></path>
                <path d="M1378.68967,1033.33094 L1378.33021,1033.68993 C1372.58358,1039.43669 1363.26632,1039.43669 1357.52017,1033.68993 L1357.30997,1033.4802 C1351.56334,1027.73296 1351.56334,1018.41595 1357.30997,1012.66918 L1357.66943,1012.30971 C1363.41606,1006.56343 1372.73332,1006.56343 1378.47995,1012.30971 L1378.68967,1012.5204 C1384.43678,1018.26668 1384.43678,1027.58369 1378.68967,1033.33094" id="Fill-493" fill="#7F7F7F"></path>
                <path d="M1692.64636,823.584832 L1531.5844,984.646708 C1525.78051,990.451097 1516.36961,990.451097 1510.56524,984.646708 L1510.35292,984.434388 C1504.54903,978.629998 1504.54903,969.219557 1510.35292,963.414683 L1671.41487,802.353292 C1677.21924,796.548903 1686.63015,796.548903 1692.43452,802.353292 L1692.64636,802.565612 C1698.45121,808.370002 1698.45121,817.780443 1692.64636,823.584832" id="Fill-499" fill="#171717"></path>
                <path d="M1364.62815,1150.6916 L1315.69213,1199.62848 C1309.86348,1205.45717 1300.41322,1205.45717 1294.58457,1199.62848 L1294.37185,1199.41527 C1288.54272,1193.58658 1288.54272,1184.13625 1294.37185,1178.30755 L1343.30787,1129.37116 C1349.13652,1123.54295 1358.58678,1123.54295 1364.41543,1129.37116 L1364.62815,1129.58485 C1370.45728,1135.41306 1370.45728,1144.8629 1364.62815,1150.6916" id="Fill-501" fill="#171717"></path>
                <path d="M1408.68998,1105.33051 L1408.33051,1105.68998 C1402.58382,1111.43667 1393.26644,1111.43667 1387.52023,1105.68998 L1387.31002,1105.47977 C1381.56333,1099.73308 1381.56333,1090.41618 1387.31002,1084.66901 L1387.66949,1084.31002 C1393.41618,1078.56333 1402.73356,1078.56333 1408.48025,1084.31002 L1408.68998,1084.52023 C1414.43667,1090.26644 1414.43667,1099.58382 1408.68998,1105.33051" id="Fill-507" fill="#424242"></path>
                <path d="M1418.6285,1202.692 L1369.69184,1251.62847 C1363.86318,1257.45718 1354.41338,1257.45718 1348.58422,1251.62847 L1348.3715,1251.41526 C1342.54283,1245.58656 1342.54283,1236.1367 1348.3715,1230.308 L1397.30816,1181.37153 C1403.13682,1175.54282 1412.58662,1175.54282 1418.41578,1181.37153 L1418.6285,1181.58474 C1424.45717,1187.41295 1424.45717,1196.8633 1418.6285,1202.692" id="Fill-511" fill="#171717"></path>
                <path d="M1728.64632,892.584962 L1567.58465,1053.64669 C1561.78078,1059.4511 1552.36993,1059.4511 1546.56558,1053.64669 L1546.35326,1053.43436 C1540.54891,1047.63043 1540.54891,1038.21946 1546.35326,1032.41504 L1707.41493,871.353314 C1713.21976,865.548895 1722.63013,865.548895 1728.43448,871.353314 L1728.6468,871.565636 C1734.45115,877.370055 1734.45115,886.780543 1728.64632,892.584962" id="Fill-513" fill="#424242"></path>
                <path d="M1482.69,1138.33046 L1482.33005,1138.68993 C1476.58338,1144.43669 1467.26652,1144.43669 1461.51985,1138.68993 L1461.30964,1138.47972 C1455.56345,1132.73296 1455.56345,1123.41595 1461.30964,1117.6687 L1461.66911,1117.30971 C1467.41626,1111.56343 1476.73312,1111.56343 1482.47979,1117.30971 L1482.69,1117.51992 C1488.43667,1123.2662 1488.43667,1132.58369 1482.69,1138.33046" id="Fill-515" fill="#424242"></path>
                <path d="M1652.62852,1388.69175 L1603.69209,1437.62845 C1597.86345,1443.45718 1588.41321,1443.45718 1582.58457,1437.62845 L1582.37185,1437.41573 C1576.54272,1431.587 1576.54272,1422.13661 1582.37185,1416.30788 L1631.30779,1367.37118 C1637.13692,1361.54294 1646.58667,1361.54294 1652.41531,1367.37118 L1652.62852,1367.58439 C1658.45716,1373.41312 1658.45716,1382.86302 1652.62852,1388.69175" id="Fill-519" fill="#424242"></path>
                <path d="M1557.69,1482.33046 L1557.33053,1482.68993 C1551.58338,1488.43669 1542.26652,1488.43669 1536.52033,1482.68993 L1536.30964,1482.4802 C1530.56345,1476.73296 1530.56345,1467.41595 1536.30964,1461.66918 L1536.66959,1461.30971 C1542.41626,1455.56343 1551.73312,1455.56343 1557.48027,1461.30971 L1557.69,1461.5204 C1563.43667,1467.26668 1563.43667,1476.58369 1557.69,1482.33046" id="Fill-521" fill="#7F7F7F"></path>
                <path d="M1660.62815,1380.69164 L1611.69221,1429.62811 C1605.86308,1435.4573 1596.41333,1435.4573 1590.58469,1429.62811 L1590.37148,1429.41539 C1584.54284,1423.58668 1584.54284,1414.13634 1590.37148,1408.30763 L1639.30791,1359.37116 C1645.13655,1353.54295 1654.58679,1353.54295 1660.41543,1359.37116 L1660.62815,1359.58486 C1666.45728,1365.41307 1666.45728,1374.86293 1660.62815,1380.69164" id="Fill-523" fill="#424242"></path>
                <path d="M1759.69,1281.33046 L1759.33053,1281.68993 C1753.58338,1287.43669 1744.26652,1287.43669 1738.52033,1281.68993 L1738.30964,1281.4802 C1732.56345,1275.73296 1732.56345,1266.41595 1738.30964,1260.66918 L1738.66959,1260.30971 C1744.41626,1254.56343 1753.73312,1254.56343 1759.48027,1260.30971 L1759.69,1260.5204 C1765.43667,1266.26668 1765.43667,1275.58369 1759.69,1281.33046" id="Fill-525" fill="#7F7F7F"></path>
                <path d="M1574.3715,1321.30825 L1623.30816,1272.37155 C1629.13682,1266.54282 1638.58662,1266.54282 1644.41578,1272.37155 L1644.6285,1272.58427 C1650.45717,1278.41349 1650.45717,1287.86339 1644.6285,1293.69212 L1595.69184,1342.62882 C1589.86318,1348.45706 1580.41338,1348.45706 1574.58422,1342.62882 L1574.3715,1342.41561 C1568.54283,1336.58688 1568.54283,1327.13698 1574.3715,1321.30825" id="Fill-527" fill="#7F7F7F"></path>
                <path d="M1681.35328,1211.41546 L1842.41523,1050.35312 C1848.21912,1044.5492 1857.63002,1044.54872 1863.4344,1050.35312 L1863.64672,1050.56544 C1869.45109,1056.36937 1869.45109,1065.78032 1863.64672,1071.58472 L1702.58477,1232.64706 C1696.78039,1238.45098 1687.36998,1238.45098 1681.56512,1232.64706 L1681.35328,1232.43474 C1675.54891,1226.63033 1675.54891,1217.21986 1681.35328,1211.41546" id="Fill-529" fill="#424242"></path>
                <path d="M1530.31,1365.66949 L1530.66947,1365.31002 C1536.41662,1359.56333 1545.73348,1359.56333 1551.47967,1365.31002 L1551.69036,1365.52023 C1557.43655,1371.26692 1557.43655,1380.58382 1551.69036,1386.33099 L1551.33041,1386.68998 C1545.58374,1392.43667 1536.26688,1392.43667 1530.51973,1386.68998 L1530.31,1386.47977 C1524.56333,1380.73356 1524.56333,1371.41618 1530.31,1365.66949" id="Fill-531" fill="#171717"></path>
                <path d="M1503.62852,1327.69204 L1454.69209,1376.62848 C1448.86345,1382.45717 1439.41321,1382.45717 1433.58457,1376.62848 L1433.37185,1376.41527 C1427.54272,1370.58657 1427.54272,1361.13672 1433.37185,1355.30802 L1482.30779,1306.37158 C1488.13692,1300.54289 1497.58667,1300.54289 1503.41531,1306.3711 L1503.62852,1306.58479 C1509.45716,1312.41301 1509.45716,1321.86334 1503.62852,1327.69204" id="Fill-533" fill="#424242"></path>
                <path d="M1588.35328,1201.41548 L1749.41523,1040.3533 C1755.21912,1034.5489 1764.63002,1034.5489 1770.4344,1040.3533 L1770.64672,1040.56562 C1776.45109,1046.36954 1776.45109,1055.78048 1770.64672,1061.58488 L1609.58477,1222.64706 C1603.78039,1228.45098 1594.36998,1228.45098 1588.5656,1222.64706 L1588.35328,1222.43474 C1582.54891,1216.63034 1582.54891,1207.21988 1588.35328,1201.41548" id="Fill-535" fill="#7F7F7F"></path>
                <path d="M1565.68968,1265.33051 L1565.33022,1265.68998 C1559.58361,1271.43667 1550.26636,1271.43667 1544.52023,1265.68998 L1544.30954,1265.47977 C1538.56341,1259.73308 1538.56341,1250.41618 1544.31002,1244.66901 L1544.66948,1244.31002 C1550.41609,1238.56333 1559.73334,1238.56333 1565.47995,1244.31002 L1565.68968,1244.52023 C1571.43677,1250.26644 1571.43677,1259.58382 1565.68968,1265.33051" id="Fill-537" fill="#171717"></path>
                <path d="M1686.64672,1041.58452 L1525.58487,1202.6467 C1519.7805,1208.4511 1510.37009,1208.4511 1504.56572,1202.6467 L1504.35291,1202.43438 C1498.54903,1196.63046 1498.54903,1187.21952 1504.35291,1181.41512 L1665.41476,1020.35294 C1671.21962,1014.54902 1680.63003,1014.54902 1686.4344,1020.35294 L1686.64672,1020.56526 C1692.45109,1026.36966 1692.45109,1035.78012 1686.64672,1041.58452" id="Fill-541" fill="#171717"></path>
                <path d="M1748.64672,976.584881 L1587.58482,1137.64706 C1581.78093,1143.45098 1572.37003,1143.45098 1566.56566,1137.64706 L1566.35286,1137.43474 C1560.54897,1131.63034 1560.54897,1122.21988 1566.35334,1116.41548 L1727.41524,955.353301 C1733.21961,949.5489 1742.63003,949.5489 1748.43489,955.353301 L1748.64672,955.565621 C1754.45109,961.369537 1754.45109,970.78048 1748.64672,976.584881" id="Fill-543" fill="#7F7F7F"></path>
                <path d="M1617.69005,1107.33046 L1617.33011,1107.68993 C1611.58351,1113.43669 1602.26628,1113.43669 1596.52016,1107.68993 L1596.30995,1107.47972 C1590.56335,1101.73296 1590.56335,1092.41595 1596.30995,1086.66918 L1596.66941,1086.30971 C1602.41601,1080.56343 1611.73324,1080.56343 1617.47984,1086.30971 L1617.69005,1086.51992 C1623.43665,1092.26668 1623.43665,1101.58369 1617.69005,1107.33046" id="Fill-545" fill="#171717"></path>
                <path d="M1471.62815,1257.692 L1422.69221,1306.62847 C1416.86308,1312.45718 1407.41333,1312.45718 1401.58469,1306.62847 L1401.37148,1306.41526 C1395.54284,1300.58656 1395.54284,1291.1367 1401.37148,1285.308 L1450.30791,1236.37153 C1456.13655,1230.54282 1465.58679,1230.54282 1471.41543,1236.37153 L1471.62815,1236.58474 C1477.45728,1242.41295 1477.45728,1251.8633 1471.62815,1257.692" id="Fill-547" fill="#7F7F7F"></path>
                <path d="M1367.69,1357.33046 L1367.33005,1357.68993 C1361.58338,1363.43669 1352.26652,1363.43669 1346.51985,1357.68993 L1346.30964,1357.4802 C1340.56345,1351.73296 1340.56345,1342.41595 1346.30964,1336.66918 L1346.66911,1336.30971 C1352.41626,1330.56343 1361.73312,1330.56343 1367.47979,1336.30971 L1367.69,1336.5204 C1373.43667,1342.26668 1373.43667,1351.58369 1367.69,1357.33046" id="Fill-549" fill="#171717"></path>
                <path d="M1709.37147,1502.30825 L1758.30783,1453.37155 C1764.13695,1447.54282 1773.58669,1447.54282 1779.41532,1453.37155 L1779.62853,1453.58427 C1785.45716,1459.413 1785.45716,1468.86339 1779.62853,1474.69212 L1730.69217,1523.62882 C1724.86354,1529.45706 1715.41331,1529.45706 1709.58468,1523.62882 L1709.37147,1523.41512 C1703.54284,1517.58688 1703.54284,1508.13698 1709.37147,1502.30825" id="Fill-551" fill="#171717"></path>
                <path d="M1663.31038,1544.66954 L1663.66984,1544.31007 C1669.41645,1538.56331 1678.7337,1538.56331 1684.47983,1544.31007 L1684.69004,1544.52028 C1690.43665,1550.26704 1690.43665,1559.58405 1684.69004,1565.3313 L1684.33058,1565.69029 C1678.58397,1571.43657 1669.26672,1571.43657 1663.52011,1565.69029 L1663.3099,1565.48008 C1657.56329,1559.7338 1657.56329,1550.41631 1663.31038,1544.66954" id="Fill-553" fill="#424242"></path>
                <path d="M1604.31,1607.66954 L1604.66947,1607.31007 C1610.41662,1601.56331 1619.73348,1601.56331 1625.47967,1607.31007 L1625.69036,1607.5198 C1631.43655,1613.26704 1631.43655,1622.58405 1625.69036,1628.33082 L1625.33041,1628.69029 C1619.58374,1634.43657 1610.26688,1634.43657 1604.51973,1628.69029 L1604.31,1628.4796 C1598.56333,1622.73332 1598.56333,1613.41631 1604.31,1607.66954" id="Fill-555" fill="#7F7F7F"></path>
                <path d="M1816.31,1393.66937 L1816.66995,1393.31038 C1822.41662,1387.56321 1831.73348,1387.56321 1837.48015,1393.31038 L1837.69036,1393.52011 C1843.43655,1399.2668 1843.43655,1408.58418 1837.69036,1414.33087 L1837.33041,1414.69034 C1831.58374,1420.43655 1822.26688,1420.43655 1816.52021,1414.69034 L1816.31,1414.47965 C1810.56333,1408.73344 1810.56333,1399.41654 1816.31,1393.66937" id="Fill-557" fill="#424242"></path>
                <path d="M1838.6281,1730.69164 L1789.69219,1779.62811 C1783.86307,1785.4573 1774.41332,1785.4573 1768.58468,1779.62811 L1768.37148,1779.41539 C1762.54284,1773.58668 1762.54284,1764.13634 1768.37148,1758.30763 L1817.30787,1709.37116 C1823.13651,1703.54295 1832.58674,1703.54295 1838.41538,1709.37116 L1838.62858,1709.58486 C1844.45722,1715.41307 1844.45722,1724.86293 1838.6281,1730.69164" id="Fill-559" fill="#424242"></path>
                <path d="M1683.6285,1464.692 L1634.69184,1513.62847 C1628.86318,1519.45718 1619.41338,1519.45718 1613.58471,1513.62847 L1613.3715,1513.41575 C1607.54283,1507.58656 1607.54283,1498.1367 1613.3715,1492.308 L1662.30816,1443.37153 C1668.13682,1437.54282 1677.58662,1437.54282 1683.41578,1443.37153 L1683.6285,1443.58474 C1689.45717,1449.41295 1689.45717,1458.8633 1683.6285,1464.692" id="Fill-561" fill="#171717"></path>
                <path d="M1789.6857,1359.33784 L1789.33107,1359.69206 C1783.58114,1365.4379 1774.26427,1365.4355 1768.51819,1359.68774 L1768.30752,1359.47751 C1762.5624,1353.73071 1762.56432,1344.41334 1768.31232,1338.66942 L1768.67703,1338.3056 C1774.42359,1332.56312 1783.73663,1332.56504 1789.48031,1338.30992 L1789.6905,1338.52063 C1795.4385,1344.26935 1795.4361,1353.59152 1789.6857,1359.33784" id="Fill-563" fill="#7F7F7F"></path>
                <path d="M1724.69,1424.33094 L1724.33005,1424.68993 C1718.58338,1430.43669 1709.26652,1430.43669 1703.52033,1424.68993 L1703.30964,1424.4802 C1697.56345,1418.73344 1697.56345,1409.41595 1703.30964,1403.66918 L1703.66959,1403.30971 C1709.41626,1397.56343 1718.73312,1397.56343 1724.47979,1403.30971 L1724.69,1403.5204 C1730.43667,1409.26668 1730.43667,1418.58369 1724.69,1424.33094" id="Fill-565" fill="#424242"></path>
                <path d="M1787.62852,1571.69164 L1738.69209,1620.62811 C1732.86345,1626.4573 1723.41321,1626.4573 1717.58457,1620.62811 L1717.37185,1620.41539 C1711.54272,1614.58668 1711.54272,1605.13634 1717.37185,1599.30763 L1766.30779,1550.37116 C1772.13692,1544.54295 1781.58667,1544.54295 1787.41531,1550.37116 L1787.62852,1550.58486 C1793.45716,1556.41307 1793.45716,1565.86293 1787.62852,1571.69164" id="Fill-567" fill="#171717"></path>
                <path d="M1851.68967,1507.33063 L1851.33021,1507.68962 C1845.58358,1513.43679 1836.26632,1513.43679 1830.52017,1507.68962 L1830.30997,1507.47989 C1824.56334,1501.7332 1824.56334,1492.41582 1830.30997,1486.66913 L1830.66943,1486.30966 C1836.41606,1480.56345 1845.73332,1480.56345 1851.47995,1486.30966 L1851.68967,1486.52035 C1857.43678,1492.26656 1857.43678,1501.58346 1851.68967,1507.33063" id="Fill-569" fill="#424242"></path>
                <path d="M1814.37185,1609.30825 L1863.30779,1560.37155 C1869.13692,1554.54282 1878.58667,1554.54282 1884.41531,1560.37155 L1884.62852,1560.58427 C1890.45716,1566.41349 1890.45716,1575.86339 1884.62852,1581.69212 L1835.69209,1630.62882 C1829.86345,1636.45706 1820.41321,1636.45706 1814.58457,1630.62882 L1814.37185,1630.41561 C1808.54272,1624.58688 1808.54272,1615.13698 1814.37185,1609.30825" id="Fill-571" fill="#171717"></path>
                <path d="M1770.31016,1651.66949 L1770.66963,1651.31002 C1776.41628,1645.56333 1785.73358,1645.56333 1791.47975,1651.31002 L1791.69044,1651.52023 C1797.4366,1657.26692 1797.4366,1666.58382 1791.68996,1672.33099 L1791.33049,1672.68998 C1785.58384,1678.43667 1776.26654,1678.43667 1770.51989,1672.68998 L1770.31016,1672.47977 C1764.56304,1666.73356 1764.56352,1657.41618 1770.31016,1651.66949" id="Fill-573" fill="#424242"></path>
                <path d="M116.674572,1413.56478 L116.463611,1413.35296 C110.696374,1407.54901 101.346167,1407.54901 95.5789294,1413.35296 L0,1509.53971 L0,1552 L116.674572,1434.58238 C122.441809,1428.77892 122.441809,1419.36872 116.674572,1413.56478" id="Fill-600" fill="#171717"></path>
                <path d="M122.637174,1304.53571 L122.424388,1304.32524 C116.607287,1298.55825 107.176237,1298.55825 101.359135,1304.32524 L0,1404.81058 L0,1447 L122.637174,1325.41946 C128.454275,1319.65296 128.454275,1310.30269 122.637174,1304.53571" id="Fill-602" fill="#7F7F7F"></path>
                <path d="M55.634512,1266.56193 L55.4215969,1266.35026 C49.6009463,1260.54991 40.1641423,1260.54991 34.3434916,1266.35026 L0,1300.57009 L0,1343 L55.634512,1287.56473 C61.4551627,1281.76536 61.4551627,1272.36227 55.634512,1266.56193" id="Fill-604" fill="#424242"></path>
                <path d="M17.4906364,1197.5137 L17.2707042,1197.30373 C12.6004085,1192.84481 5.67656088,1191.8515 0,1194.31993 L0,1235 L17.4906364,1218.30102 C23.5031212,1212.56067 23.5031212,1203.25405 17.4906364,1197.5137" id="Fill-606" fill="#7F7F7F"></path>
                <path d="M37.6964179,1070.65764 L37.4865221,1070.44104 C31.7484126,1064.51965 22.4454295,1064.51965 16.70732,1070.44104 L0,1087.6815 L0,1131 L37.6964179,1092.10054 C43.4345274,1086.17915 43.4345274,1076.57903 37.6964179,1070.65764" id="Fill-608" fill="#424242"></path>
                <path d="M259.646719,1293.58488 L98.5847675,1454.64706 C92.7803926,1460.45098 83.3699758,1460.45098 77.5656009,1454.64706 L77.3532812,1454.43426 C71.5489063,1448.63034 71.5489063,1439.21988 77.3532812,1433.41548 L238.415233,1272.3533 C244.219607,1266.5489 253.630024,1266.5489 259.434399,1272.3533 L259.646719,1272.56562 C265.451094,1278.36954 265.451094,1287.78048 259.646719,1293.58488" id="Fill-614" fill="#7F7F7F"></path>
                <path d="M128.689989,1424.33048 L128.330042,1424.68995 C122.583841,1430.43668 113.266481,1430.43668 107.5198,1424.68995 L107.309591,1424.47974 C101.56339,1418.73302 101.56339,1409.41606 107.310071,1403.66934 L107.669538,1403.30987 C113.416219,1397.56362 122.733099,1397.56314 128.47978,1403.30987 L128.689989,1403.52008 C134.43667,1409.26632 134.43667,1418.58376 128.689989,1424.33048" id="Fill-616" fill="#171717"></path>
                <path d="M15.430178,1848.53031 L15.2072971,1848.31995 C11.088071,1844.42273 5.24024578,1843.16489 0,1844.53633 L0,1884 L15.430178,1869.40324 C21.523274,1863.63973 21.523274,1854.2943 15.430178,1848.53031" id="Fill-618" fill="#7F7F7F"></path>
                <path d="M1118.39349,1923 L1248.65384,1791.73918 C1254.44872,1785.89977 1254.44872,1776.43256 1248.65384,1770.59267 L1248.44187,1770.37955 C1242.64699,1764.54015 1233.25198,1764.54015 1227.45661,1770.37955 L1076,1923 L1118.39349,1923 Z" id="Fill-620" fill="#7F7F7F"></path>
                <path d="M909.414002,1923 L1003.65174,1827.81246 C1009.44942,1821.95635 1009.44942,1812.46156 1003.65174,1806.60593 L1003.43966,1806.39172 C997.641983,1800.53609 988.242419,1800.53609 982.444738,1806.39172 L867,1923 L909.414002,1923 Z" id="Fill-622" fill="#424242"></path>
                <path d="M802.202225,1923 L934.67344,1789.60474 C940.442106,1783.79632 940.442106,1774.37856 934.673921,1768.56916 L934.462908,1768.35668 C928.694241,1762.54777 919.341235,1762.54777 913.572568,1768.35668 L760,1923 L802.202225,1923 Z" id="Fill-624" fill="#424242"></path>
                <path d="M695.223897,1923 C698.228546,1917.41374 697.421998,1910.25265 692.79629,1905.51663 L692.59114,1905.30658 C686.983241,1899.56447 677.890137,1899.56447 672.28177,1905.30658 L655,1923 L695.223897,1923 Z" id="Fill-626" fill="#424242"></path>
                <path d="M66.035481,1923 L69.6905942,1919.46874 C75.4364686,1913.91755 75.4364686,1904.91716 69.6905942,1899.36598 L69.4804144,1899.16339 C63.73454,1893.6122 54.418968,1893.6122 48.6730936,1899.16339 L24,1923 L66.035481,1923 Z" id="Fill-628" fill="#424242"></path>
                <path d="M170.061329,1923 L187.585426,1906.06858 C193.471525,1900.38139 193.471525,1891.16097 187.585426,1885.4733 L187.370117,1885.26575 C181.484018,1879.57808 171.941106,1879.57808 166.055007,1885.26575 L127,1923 L170.061329,1923 Z" id="Fill-630" fill="#7F7F7F"></path>
                <path d="M1752.00182,1923 L1779.59153,1896.18373 C1785.46949,1890.46997 1785.46949,1881.20724 1779.59153,1875.49443 L1779.37652,1875.28496 C1773.49855,1869.57168 1763.96883,1869.57168 1758.09086,1875.28496 L1709,1923 L1752.00182,1923 Z" id="Fill-632" fill="#7F7F7F"></path>
                <path d="M1649.26953,1923 L1703.6666,1869.19233 C1709.44447,1863.47707 1709.44447,1854.21065 1703.6666,1848.49539 L1703.45525,1848.28681 C1697.67738,1842.57106 1688.30946,1842.57106 1682.53208,1848.28681 L1607,1923 L1649.26953,1923 Z" id="Fill-634" fill="#424242"></path>
                <path d="M1438.17468,1923 L1457.57344,1904.20443 C1463.47552,1898.48634 1463.47552,1889.21582 1457.57344,1883.49773 L1457.35805,1883.28857 C1451.45597,1877.57048 1441.88794,1877.57048 1435.98684,1883.28857 L1395,1923 L1438.17468,1923 Z" id="Fill-636" fill="#7F7F7F"></path>
                <path d="M1431,1923 C1430.82357,1919.53085 1429.39148,1916.11145 1426.70275,1913.46138 L1426.49171,1913.25436 C1420.73544,1907.58188 1411.40301,1907.58188 1405.64722,1913.25436 L1405.28668,1913.60919 C1402.63545,1916.22088 1401.20864,1919.58107 1401,1923 L1431,1923 Z" id="Fill-638" fill="#171717"></path>
                <path d="M1226.06315,1921 L1269.62834,1877.59726 C1275.45722,1871.79005 1275.45722,1862.37455 1269.62834,1856.56783 L1269.41513,1856.35541 C1263.58625,1850.5482 1254.1361,1850.5482 1248.30723,1856.35541 L1199.3688,1905.11141 C1195.05677,1909.40741 1193.9386,1915.67632 1196.00602,1921 L1226.06315,1921 Z" id="Fill-640" fill="#424242"></path>
                <path d="M1848,1923 C1847.48958,1920.23174 1846.1786,1917.5847 1844.0638,1915.44282 L1843.85935,1915.23623 C1838.28339,1909.58792 1829.24205,1909.58792 1823.66562,1915.23623 L1816,1923 L1848,1923 Z" id="Fill-642" fill="#171717"></path>
                <path d="M1923,1183 L1824.38864,1280.49811 C1818.53712,1286.2836 1818.53712,1295.6634 1824.38864,1301.44889 L1824.60268,1301.66052 C1830.4542,1307.44649 1839.94106,1307.44649 1845.79307,1301.66052 L1923,1225.3253 L1923,1183 Z" id="Fill-644" fill="#171717"></path>
                <path d="M1923,1183 L1899.32523,1207.11133 C1893.55826,1212.98465 1893.55826,1222.50734 1899.32523,1228.38066 L1899.53619,1228.59501 C1905.30317,1234.46833 1914.65295,1234.46833 1920.42042,1228.59501 L1923,1225.96786 L1923,1183 Z" id="Fill-646" fill="#424242"></path>
                <path d="M1923,1076 L1788.36707,1209.54166 C1782.54431,1215.31773 1782.54431,1224.68146 1788.36707,1230.45705 L1788.57957,1230.66831 C1794.40282,1236.4439 1803.84304,1236.4439 1809.6658,1230.66831 L1923,1118.25234 L1923,1076 Z" id="Fill-648" fill="#171717"></path>
                <path d="M1923,974 L1905.51028,990.697037 C1899.49657,996.438187 1899.49657,1005.74532 1905.51028,1011.48551 L1905.72974,1011.69598 C1910.40009,1016.15466 1917.32276,1017.14804 1923,1014.68138 L1923,974 Z" id="Fill-650" fill="#7F7F7F"></path>
                <path d="M1923,1076 L1877.38602,1121.36384 C1871.53799,1127.17979 1871.53799,1136.60898 1877.38602,1142.42541 L1877.59944,1142.63767 C1883.44795,1148.45411 1892.92913,1148.45411 1898.77716,1142.63767 L1923,1118.54815 L1923,1076 Z" id="Fill-656" fill="#424242"></path>
                <path d="M1923,1288 L1877.40538,1333.2846 C1871.53154,1339.11899 1871.53154,1348.57727 1877.40538,1354.41117 L1877.61975,1354.62457 C1883.49408,1360.45848 1893.01712,1360.45848 1898.89096,1354.62457 L1923,1330.67898 L1923,1288 Z" id="Fill-658" fill="#7F7F7F"></path>
                <path d="M1923,1395 L1917.02529,1401.58016 C1911.65831,1407.49101 1911.65831,1417.07324 1917.02484,1422.98309 L1917.22114,1423.19978 C1918.89152,1425.03893 1920.88503,1426.30551 1923,1427 L1923,1395 Z" id="Fill-660" fill="#424242"></path>
                <path d="M1923,1816 L1875.33556,1864.87154 C1869.55481,1870.79923 1869.55481,1880.40958 1875.33556,1886.33728 L1875.54751,1886.5546 C1881.32825,1892.4818 1890.70162,1892.4818 1896.48284,1886.5546 L1923,1859.36563 L1923,1816 Z" id="Fill-662" fill="#424242"></path>
            </g>
        </g>
    </g>
</svg>