<?xml version="1.0" encoding="UTF-8"?>
<svg width="205px" height="205px" viewBox="0 0 205 205" version="1.1" xmlns="http://www.w3.org/2000/svg" xmlns:xlink="http://www.w3.org/1999/xlink">
    <!-- Generator: Sketch 50.2 (55047) - http://www.bohemiancoding.com/sketch -->
    <title>Group 3</title>
    <desc>Created with Sketch.</desc>
    <defs>
        <linearGradient x1="81.048778%" y1="16.4034981%" x2="5.40040794%" y2="104.464317%" id="linearGradient-1">
            <stop stop-color="#F5515F" offset="0%"></stop>
            <stop stop-color="#8C0ABF" offset="100%"></stop>
        </linearGradient>
    </defs>
    <g id="Page-1" stroke="none" stroke-width="1" fill="none" fill-rule="evenodd">
        <g id="home_dark-copy" transform="translate(-624.000000, -374.000000)">
            <g id="Group-3" transform="translate(627.000000, 377.000000)">
                <g id="092-break" transform="translate(44.000000, 40.000000)" fill="url(#linearGradient-1)" fill-rule="nonzero">
                    <path d="M92.1875664,89 L37.8124336,89 C36.724931,89 36,89.5999648 36,90.5 C36,91.4000352 36.724931,92 37.8124336,92 L92.1875664,92 C93.275069,92 94,91.4000352 94,90.5 C94,89.5999648 93.275069,89 92.1875664,89 Z" id="Shape"></path>
                    <path d="M39.2758186,95.1997328 L15.9655752,95.1997328 C12.9172334,95.1997328 10.5862721,92.7298263 10.5862721,89.4997773 C10.5862721,86.2697284 12.9172334,83.7998219 15.9655752,83.7998219 L57.206969,83.7998219 C58.2828296,83.7998219 59,83.039902 59,81.8999109 C59,80.7599198 58.2828296,80 57.206969,80 L15.9655752,80 C10.9449624,80 7,84.1798931 7,89.5 C7,94.8201069 10.9447522,99 15.9655752,99 L39.2758186,99 C40.3516792,99 41.0688496,98.2400802 41.0688496,97.1000891 C41.0690597,95.9596527 40.3516792,95.1997328 39.2758186,95.1997328 Z" id="Shape"></path>
                    <path d="M93.1875664,80 L67.8124336,80 C66.724931,80 66,80.5999648 66,81.5 C66,82.4000352 66.724931,83 67.8124336,83 L93.1875664,83 C94.275069,83 95,82.4000352 95,81.5 C95,80.5999648 94.275069,80 93.1875664,80 Z" id="Shape"></path>
                    <path d="M68.1667203,96 L49.8332796,96 C48.7332689,96 48,96.5999648 48,97.5 C48,98.4000352 48.7332689,99 49.8332796,99 L68.1667203,99 C69.2667311,99 70,98.4000352 70,97.5 C70.0002148,96.5999648 69.2667311,96 68.1667203,96 Z" id="Shape"></path>
                    <path d="M92.1818763,96 L75.8181237,96 C74.7272069,96 74,96.5999648 74,97.5 C74,98.4000352 74.7272069,99 75.8181237,99 L92.1818763,99 C93.2727931,99 94,98.4000352 94,97.5 C94,96.5999648 93.2727931,96 92.1818763,96 Z" id="Shape"></path>
                    <path d="M17.8749451,89 C16.7499341,89 16,89.5999648 16,90.5 C16,91.4000352 16.7499341,92 17.8749451,92 L29.1250549,92 C30.2500659,92 31,91.4000352 31,90.5 C31,89.5999648 30.2500659,89 29.1250549,89 L17.8749451,89 Z" id="Shape"></path>
                    <path d="M54.1712364,47.3907075 C49.9653372,47.3907075 45.3938567,43.2117728 42.2851299,36.9432595 C41.9193343,35.9934105 40.8221619,35.8035298 39.9079944,36.1835139 C38.9938268,36.563498 38.8108219,37.7032277 39.1766175,38.652854 C42.1023393,44.5413833 47.5882016,51 54.3542413,51 C55.4514138,51 56,50.4301351 56,49.2904054 C56,48.1506757 55.2684088,47.3907075 54.1712364,47.3907075 Z" id="Shape"></path>
                    <path d="M107.183614,55.0910253 L96.2835923,55.0910253 L89.0169824,55.0910253 L65.6743314,55.0910253 C67.9652519,53.5430863 70.0579708,51.5732728 71.8935173,49.3247662 C72.7567905,49.5493399 73.6200637,49.6364847 74.4833368,49.6364847 C80.4783486,49.6364847 85.3833581,44.7273981 85.5649542,38.3636964 C85.5649542,34.4006317 83.3170377,30.7377799 79.9103553,28.8727957 C79.9241932,28.5197421 79.9333475,28.1677538 79.9333475,27.8181092 C79.9333475,26.7272011 79.2067504,26 78.1167482,26 L30.8834646,26 C29.7934625,26 29.0668654,26.7272011 29.0668654,27.8181092 C29.0668654,37.8433844 34.843238,49.3592832 43.3260944,55.0908122 L27.2500532,55.0908122 L16.3500319,55.0908122 L1.81659925,55.0908122 C0.726597122,55.0908122 1.89085228e-16,55.8180133 1.89085228e-16,56.9089214 L1.89085228e-16,75.0906524 C1.89085228e-16,76.1815606 0.726597122,76.9087616 1.81659925,76.9087616 L6.03333209,76.9087616 C2.34499481,79.9000232 0,84.4739538 0,89.6363782 C0,98.7273502 7.26660989,106 16.3500319,106 L105.366801,106 C106.093399,106 106.6384,105.636293 107.001805,105.090839 C107.36521,104.545385 107.36521,103.818184 107.001805,103.27273 C104.640204,99.0908442 103.368393,94.3637177 103.368393,89.6363782 C103.368393,85.2482429 104.465847,80.8609598 106.511942,76.9091878 L107.183401,76.9091878 C108.273403,76.9091878 109,76.1819867 109,75.0910786 L109,56.9091345 C109.000213,55.8182264 108.273616,55.0910253 107.183614,55.0910253 Z M105.366801,73.2727563 L98.1001916,73.2727563 L98.1001916,58.7272437 L105.366801,58.7272437 L105.366801,73.2727563 Z M94.4667802,58.7272437 L94.4667802,73.2727563 L90.8333688,73.2727563 L90.8333688,58.7272437 L94.4667802,58.7272437 Z M81.7501596,38.7274035 C81.7501596,42.7273289 78.2985572,46.1820133 74.3017408,46.0000533 C75.4973369,44.2051685 76.4898349,42.2487782 77.3028658,40.226976 C78.2444829,37.9584411 78.9553261,35.6161846 79.3987781,33.2835163 C80.8460114,34.7370661 81.7501596,36.7320217 81.7501596,38.7274035 Z M32.7000639,29.6364314 L76.300149,29.6364314 C76.2013675,30.9212314 75.999334,32.2273382 75.7036283,33.5353626 C75.6834036,33.6220813 75.6633919,33.7088 75.6423157,33.7955186 C75.6105949,33.9301776 75.5786613,34.0648366 75.5450245,34.1992825 C74.7541343,37.2870638 73.4580536,40.3727145 71.7804722,43.2058796 C71.7655698,43.2308086 71.7506675,43.2559506 71.7357651,43.2806665 C71.6638079,43.401476 71.5884445,43.5197288 71.5149971,43.639686 C67.4651708,50.1501916 61.2794087,55.0910253 54.5001064,55.0910253 C43.2366801,55.0910253 33.6084699,41.4546738 32.7000639,29.6364314 Z M87.2001703,58.7272437 L87.2001703,73.2727563 L29.0666525,73.2727563 L29.0666525,58.7272437 L87.2001703,58.7272437 Z M25.433454,58.7272437 L25.433454,73.2727563 L18.1666312,73.2727563 L18.1666312,58.7272437 L25.433454,58.7272437 Z M3.63341139,58.7272437 L14.5334327,58.7272437 L14.5334327,73.2727563 L3.63341139,73.2727563 L3.63341139,58.7272437 Z M102.4602,102.363569 L16.3500319,102.363569 C9.26501809,102.363569 3.63341139,96.727281 3.63341139,89.6363782 C3.63341139,82.5454754 9.26501809,76.9091878 16.3500319,76.9091878 L27.2500532,76.9091878 L89.0167695,76.9091878 L96.2833794,76.9091878 L102.4602,76.9091878 C100.643388,80.9091132 99.7349819,85.2727457 99.7349819,89.6363782 C99.7351948,94.0000107 100.643601,98.3636431 102.4602,102.363569 Z" id="Shape"></path>
                    <path d="M39.8094632,67 L74.1905368,67 C75.2762571,67 76,66.4000352 76,65.5 C76,64.5999648 75.2762571,64 74.1905368,64 L39.8094632,64 C38.7237429,64 38,64.5999648 38,65.5 C38,66.4000352 38.7237429,67 39.8094632,67 Z" id="Shape"></path>
                    <path d="M51,12.8584927 C51,14.7776153 51.699959,16.5048932 53.2750205,18.4242407 C53.6251025,18.8081552 53.9749795,19 54.5,19 C54.850082,19 55.3751025,18.8081552 55.550041,18.4242407 C56.4251436,17.6566366 56.4251436,16.5051181 55.7249795,15.7372891 C55.199959,15.1615298 54.5,14.0100113 54.5,13.0503375 C54.5,12.2827334 55.0250205,11.5149045 55.7249795,10.7473004 C57.300041,9.02002255 58,7.29274471 58,5.37362208 C58,3.64634424 57.1248975,1.9190664 55.7249795,0.575703053 C55.0250205,-0.191901018 53.9749795,-0.191901018 53.2748154,0.575703053 C52.5746514,1.34330712 52.5748564,2.49482568 53.2748154,3.26265466 C54.149918,4.03025873 54.4997949,4.79808771 54.4997949,5.56569178 C54.4997949,6.52536555 53.7998359,7.48481441 53.2748154,8.06057369 C51.8751025,9.40393704 51,11.1312149 51,12.8584927 Z" id="Shape"></path>
                    <path d="M64,12.8584927 C64,14.7776153 64.699959,16.5048932 66.2750205,18.4242407 C66.6251025,18.8081552 66.9749795,19 67.5,19 C67.850082,19 68.3751025,18.8081552 68.550041,18.4242407 C69.4251436,17.6566366 69.4251436,16.5051181 68.7249795,15.7372891 C68.199959,15.1615298 67.5,14.0100113 67.5,13.0503375 C67.5,12.2827334 68.0250205,11.5149045 68.7249795,10.7473004 C70.300041,9.02002255 71,7.29274471 71,5.37362208 C71,3.64634424 70.1248975,1.9190664 68.7249795,0.575703053 C68.0250205,-0.191901018 66.9749795,-0.191901018 66.2748154,0.575703053 C65.5746514,1.34330712 65.5748564,2.49482568 66.2748154,3.26265466 C67.149918,4.03025873 67.4997949,4.79808771 67.4997949,5.56569178 C67.4997949,6.52536555 66.7998359,7.48481441 66.2748154,8.06057369 C64.8748975,9.40393704 64,11.1312149 64,12.8584927 Z" id="Shape"></path>
                    <path d="M38,12.8584927 C38,14.7776153 38.699959,16.5048932 40.2750205,18.4242407 C40.6251025,18.8081552 40.9749795,19 41.5,19 C41.850082,19 42.3751025,18.8081552 42.550041,18.4242407 C43.4251436,17.6566366 43.4251436,16.5051181 42.7249795,15.7372891 C42.199959,15.1615298 41.5,14.0100113 41.5,13.0503375 C41.5,12.2827334 42.0250205,11.5149045 42.7249795,10.7473004 C44.300041,9.02002255 45,7.29274471 45,5.37362208 C45,3.64634424 44.1248975,1.9190664 42.7249795,0.575703053 C42.0250205,-0.191901018 40.9749795,-0.191901018 40.2748154,0.575703053 C39.5746514,1.34330712 39.5748564,2.49482568 40.2748154,3.26265466 C41.149918,4.03025873 41.4997949,4.79808771 41.4997949,5.56569178 C41.4997949,6.52536555 40.7998359,7.48481441 40.2748154,8.06057369 C38.8751025,9.40393704 38,11.1312149 38,12.8584927 Z" id="Shape"></path>
                </g>
                <circle id="Oval-3-Copy-2" stroke="url(#linearGradient-1)" stroke-width="5" cx="99.5" cy="99.5" r="99.5"></circle>
            </g>
        </g>
    </g>
</svg>