<?xml version="1.0" encoding="UTF-8"?>
<svg width="136px" height="136px" viewBox="0 0 136 136" version="1.1" xmlns="http://www.w3.org/2000/svg" xmlns:xlink="http://www.w3.org/1999/xlink">
    <!-- Generator: Sketch 50.2 (55047) - http://www.bohemiancoding.com/sketch -->
    <title>Group 3</title>
    <desc>Created with Sketch.</desc>
    <defs>
        <linearGradient x1="81.048778%" y1="16.4034981%" x2="5.40040794%" y2="104.464317%" id="linearGradient-1">
            <stop stop-color="#F5515F" offset="0%"></stop>
            <stop stop-color="#8C0ABF" offset="100%"></stop>
        </linearGradient>
        <linearGradient x1="87.2550026%" y1="98.2580927%" x2="-0.805816598%" y2="22.6097226%" id="linearGradient-2">
            <stop stop-color="#F5515F" offset="0%"></stop>
            <stop stop-color="#8C0ABF" offset="100%"></stop>
        </linearGradient>
    </defs>
    <g id="Page-1" stroke="none" stroke-width="1" fill="none" fill-rule="evenodd">
        <g id="home_dark-copy" transform="translate(-624.000000, -443.000000)">
            <g id="Group-3" transform="translate(627.000000, 446.000000)">
                <g id="092-break" transform="translate(29.000000, 26.000000)" fill="url(#linearGradient-1)" fill-rule="nonzero">
                    <path d="M60.0487818,57.9339623 L24.6301173,57.9339623 C23.921744,57.9339623 23.4495413,58.3245054 23.4495413,58.9103774 C23.4495413,59.4962493 23.921744,59.8867925 24.6301173,59.8867925 L60.0487818,59.8867925 C60.7571551,59.8867925 61.2293578,59.4962493 61.2293578,58.9103774 C61.2293578,58.3245054 60.7571551,57.9339623 60.0487818,57.9339623 Z" id="Shape"></path>
                    <path d="M25.5833314,61.9696374 L10.3995949,61.9696374 C8.41397773,61.9696374 6.89564514,60.3618681 6.89564514,58.259289 C6.89564514,56.15671 8.41397773,54.5489407 10.3995949,54.5489407 L37.263255,54.5489407 C37.964045,54.5489407 38.4311927,54.0542759 38.4311927,53.3122062 C38.4311927,52.5701365 37.964045,52.0754717 37.263255,52.0754717 L10.3995949,52.0754717 C7.12928741,52.0754717 4.55963303,54.7963455 4.55963303,58.259434 C4.55963303,61.7225224 7.12915053,64.4433962 10.3995949,64.4433962 L25.5833314,64.4433962 C26.2841213,64.4433962 26.751269,63.9487314 26.751269,63.2066617 C26.7514059,62.4643022 26.2841213,61.9696374 25.5833314,61.9696374 Z" id="Shape"></path>
                    <path d="M60.7001579,52.0754717 L44.1714017,52.0754717 C43.4630284,52.0754717 42.9908257,52.4660149 42.9908257,53.0518868 C42.9908257,53.6377587 43.4630284,54.0283019 44.1714017,54.0283019 L60.7001579,54.0283019 C61.4085312,54.0283019 61.8807339,53.6377587 61.8807339,53.0518868 C61.8807339,52.4660149 61.4085312,52.0754717 60.7001579,52.0754717 Z" id="Shape"></path>
                    <path d="M44.4021756,62.490566 L32.4602097,62.490566 C31.7436889,62.490566 31.266055,62.8811092 31.266055,63.4669811 C31.266055,64.0528531 31.7436889,64.4433962 32.4602097,64.4433962 L44.4021756,64.4433962 C45.1186964,64.4433962 45.5963302,64.0528531 45.5963302,63.4669811 C45.5964702,62.8811092 45.1186964,62.490566 44.4021756,62.490566 Z" id="Shape"></path>
                    <path d="M60.0450754,62.490566 L49.3861173,62.490566 C48.6755201,62.490566 48.2018349,62.8811092 48.2018349,63.4669811 C48.2018349,64.0528531 48.6755201,64.4433962 49.3861173,64.4433962 L60.0450754,64.4433962 C60.7556726,64.4433962 61.2293578,64.0528531 61.2293578,63.4669811 C61.2293578,62.8811092 60.7556726,62.490566 60.0450754,62.490566 Z" id="Shape"></path>
                    <path d="M11.6433128,57.9339623 C10.9105075,57.9339623 10.4220183,58.3245054 10.4220183,58.9103774 C10.4220183,59.4962493 10.9105075,59.8867925 11.6433128,59.8867925 L18.9713661,59.8867925 C19.7041714,59.8867925 20.1926606,59.4962493 20.1926606,58.9103774 C20.1926606,58.3245054 19.7041714,57.9339623 18.9713661,57.9339623 L11.6433128,57.9339623 Z" id="Shape"></path>
                    <path d="M35.2858512,30.8486681 C32.5462288,30.8486681 29.5684754,28.1284182 27.543525,24.0479708 C27.3052545,23.4296729 26.5905825,23.3060713 25.9951156,23.5534194 C25.3996487,23.8007676 25.2804436,24.5426671 25.5187141,25.1608201 C27.4244595,28.9939193 30.9978194,33.1981132 35.4050563,33.1981132 C36.1197282,33.1981132 36.4770642,32.8271634 36.4770642,32.0852639 C36.4770642,31.3433644 36.0005232,30.8486681 35.2858512,30.8486681 Z" id="Shape"></path>
                    <path d="M69.8168492,35.8611391 L62.7168354,35.8611391 L57.983539,35.8611391 L42.7786929,35.8611391 C44.2709439,34.8535185 45.6340911,33.5712813 46.8297223,32.1076308 C47.3920379,32.2538156 47.9543534,32.3105419 48.516669,32.3105419 C52.4216766,32.3105419 55.6166828,29.1150045 55.7349702,24.9725948 C55.7349702,22.3928641 54.270731,20.0085548 52.0516993,18.7945557 C52.060713,18.5647378 52.0666759,18.3356133 52.0666759,18.1080145 C52.0666759,17.397895 51.5933879,16.9245283 50.8833865,16.9245283 L20.1167522,16.9245283 C19.4067508,16.9245283 18.9334628,17.397895 18.9334628,18.1080145 C18.9334628,24.6339011 22.6960541,32.1300995 28.2215844,35.8610004 L17.7500347,35.8610004 L10.6500208,35.8610004 L1.18328942,35.8610004 C0.473288034,35.8610004 1.23165607e-16,36.3343671 1.23165607e-16,37.0444866 L1.23165607e-16,48.8797643 C1.23165607e-16,49.5898838 0.473288034,50.0632505 1.18328942,50.0632505 L3.92996861,50.0632505 C1.52747369,52.0103924 0,54.9877624 0,58.3482084 C0,64.2659166 4.73329635,69 10.6500208,69 L68.6334211,69 C69.1067092,69 69.4617099,68.7632473 69.6984232,68.4081876 C69.9351366,68.0531279 69.9351366,67.5797611 69.6984232,67.2247014 C68.1601331,64.5025307 67.3317057,61.4254389 67.3317057,58.3482084 C67.3317057,55.4917807 68.0465606,52.6359078 69.3793386,50.0635279 L69.8167105,50.0635279 C70.5267119,50.0635279 71,49.5901612 71,48.8800417 L71,37.0446253 C71.0001386,36.3345058 70.5268506,35.8611391 69.8168492,35.8611391 Z M68.6334211,47.6964169 L63.9001248,47.6964169 L63.9001248,38.2281114 L68.6334211,38.2281114 L68.6334211,47.6964169 Z M61.5334073,38.2281114 L61.5334073,47.6964169 L59.1666898,47.6964169 L59.1666898,38.2281114 L61.5334073,38.2281114 Z M53.250104,25.2093475 C53.250104,27.8130726 51.0018125,30.0618766 48.3983816,29.9434309 C49.1771644,28.7750625 49.8236539,27.5015632 50.3532429,26.1854844 C50.9665898,24.7087966 51.4296161,23.1841202 51.7184701,21.6656851 C52.6611634,22.6118638 53.250104,23.910467 53.250104,25.2093475 Z M21.3000416,19.2916393 L49.700097,19.2916393 C49.6357532,20.1279714 49.5041533,20.978173 49.3115377,21.8296228 C49.2983638,21.8860718 49.2853287,21.9425207 49.2716001,21.9989697 C49.250938,22.0866251 49.2301371,22.1742804 49.2082269,22.2617971 C48.6930599,24.271768 47.8488239,26.2803519 46.7560874,28.124582 C46.7463803,28.1408093 46.7366733,28.1571754 46.7269662,28.173264 C46.6800951,28.2519042 46.6310051,28.32888 46.5831632,28.4069654 C43.945203,32.6449361 39.9159451,35.8611391 35.5000693,35.8611391 C28.1633421,35.8611391 21.8917556,26.9846461 21.3000416,19.2916393 Z M56.8001109,38.2281114 L56.8001109,47.6964169 L18.9333241,47.6964169 L18.9333241,38.2281114 L56.8001109,38.2281114 Z M16.5667452,38.2281114 L16.5667452,47.6964169 L11.8333102,47.6964169 L11.8333102,38.2281114 L16.5667452,38.2281114 Z M2.36671751,38.2281114 L9.46673138,38.2281114 L9.46673138,47.6964169 L2.36671751,47.6964169 L2.36671751,38.2281114 Z M66.7401303,66.632889 L10.6500208,66.632889 C6.03501178,66.632889 2.36671751,62.9639848 2.36671751,58.3482084 C2.36671751,53.7324321 6.03501178,50.0635279 10.6500208,50.0635279 L17.7500347,50.0635279 L57.9834003,50.0635279 L62.7166967,50.0635279 L66.7401303,50.0635279 C65.5567022,52.6672529 64.9649882,55.5077307 64.9649882,58.3482084 C64.9651269,61.1886862 65.5568409,64.0291639 66.7401303,66.632889 Z" id="Shape"></path>
                    <path d="M25.9309348,43.6132075 L48.325946,43.6132075 C49.0331583,43.6132075 49.5045872,43.2226644 49.5045872,42.6367925 C49.5045872,42.0509205 49.0331583,41.6603774 48.325946,41.6603774 L25.9309348,41.6603774 C25.2237224,41.6603774 24.7522936,42.0509205 24.7522936,42.6367925 C24.7522936,43.2226644 25.2237224,43.6132075 25.9309348,43.6132075 Z" id="Shape"></path>
                    <path d="M33.2201835,8.37015092 C33.2201835,9.61939112 33.6761201,10.7437512 34.7020776,11.9931378 C34.9301127,12.2430444 35.1580142,12.3679245 35.5,12.3679245 C35.7280351,12.3679245 36.0700209,12.2430444 36.1839717,11.9931378 C36.7539926,11.493471 36.7539926,10.7438976 36.2979224,10.2440844 C35.9559366,9.86929772 35.5,9.11972432 35.5,8.49503102 C35.5,7.99536422 35.8419858,7.49555102 36.2979224,6.99588422 C37.3238799,5.87152411 37.7798165,4.74716401 37.7798165,3.49792381 C37.7798165,2.3735637 37.2097956,1.2492036 36.2979224,0.374750101 C35.8419858,-0.1249167 35.1580142,-0.1249167 34.701944,0.374750101 C34.2458738,0.874416901 34.2460074,1.6239903 34.701944,2.1238035 C35.2719649,2.62347031 35.4998664,3.12328351 35.4998664,3.62295031 C35.4998664,4.24764361 35.0439298,4.87219051 34.701944,5.24697721 C33.7902044,6.12143071 33.2201835,7.24579082 33.2201835,8.37015092 Z" id="Shape"></path>
                    <path d="M41.6880734,8.37015092 C41.6880734,9.61939112 42.14401,10.7437512 43.1699675,11.9931378 C43.3980026,12.2430444 43.6259041,12.3679245 43.9678899,12.3679245 C44.195925,12.3679245 44.5379108,12.2430444 44.6518616,11.9931378 C45.2218825,11.493471 45.2218825,10.7438976 44.7658123,10.2440844 C44.4238265,9.86929772 43.9678899,9.11972432 43.9678899,8.49503102 C43.9678899,7.99536422 44.3098757,7.49555102 44.7658123,6.99588422 C45.7917698,5.87152411 46.2477064,4.74716401 46.2477064,3.49792381 C46.2477064,2.3735637 45.6776855,1.2492036 44.7658123,0.374750101 C44.3098757,-0.1249167 43.6259041,-0.1249167 43.1698339,0.374750101 C42.7137637,0.874416901 42.7138973,1.6239903 43.1698339,2.1238035 C43.7398548,2.62347031 43.9677563,3.12328351 43.9677563,3.62295031 C43.9677563,4.24764361 43.5118197,4.87219051 43.1698339,5.24697721 C42.2579607,6.12143071 41.6880734,7.24579082 41.6880734,8.37015092 Z" id="Shape"></path>
                    <path d="M24.7522936,8.37015092 C24.7522936,9.61939112 25.2082302,10.7437512 26.2341877,11.9931378 C26.4622228,12.2430444 26.6901243,12.3679245 27.0321101,12.3679245 C27.2601452,12.3679245 27.602131,12.2430444 27.7160818,11.9931378 C28.2861027,11.493471 28.2861027,10.7438976 27.8300325,10.2440844 C27.4880467,9.86929772 27.0321101,9.11972432 27.0321101,8.49503102 C27.0321101,7.99536422 27.3740959,7.49555102 27.8300325,6.99588422 C28.85599,5.87152411 29.3119266,4.74716401 29.3119266,3.49792381 C29.3119266,2.3735637 28.7419057,1.2492036 27.8300325,0.374750101 C27.3740959,-0.1249167 26.6901243,-0.1249167 26.2340541,0.374750101 C25.7779839,0.874416901 25.7781175,1.6239903 26.2340541,2.1238035 C26.804075,2.62347031 27.0319765,3.12328351 27.0319765,3.62295031 C27.0319765,4.24764361 26.5760399,4.87219051 26.2340541,5.24697721 C25.3223145,6.12143071 24.7522936,7.24579082 24.7522936,8.37015092 Z" id="Shape"></path>
                </g>
                <circle id="Oval-3-Copy-2" stroke="url(#linearGradient-2)" stroke-width="5" cx="65" cy="65" r="65"></circle>
            </g>
        </g>
    </g>
</svg>