<?xml version="1.0" encoding="UTF-8"?>
<svg width="205px" height="205px" viewBox="0 0 205 205" version="1.1" xmlns="http://www.w3.org/2000/svg" xmlns:xlink="http://www.w3.org/1999/xlink">
    <!-- Generator: Sketch 50.2 (55047) - http://www.bohemiancoding.com/sketch -->
    <title>Group 4</title>
    <desc>Created with Sketch.</desc>
    <defs>
        <linearGradient x1="81.048778%" y1="16.4034981%" x2="5.40040794%" y2="104.464317%" id="linearGradient-1">
            <stop stop-color="#F5515F" offset="0%"></stop>
            <stop stop-color="#8C0ABF" offset="100%"></stop>
        </linearGradient>
    </defs>
    <g id="Page-1" stroke="none" stroke-width="1" fill="none" fill-rule="evenodd">
        <g id="home_dark-copy" transform="translate(-624.000000, -650.000000)">
            <g id="Group-4" transform="translate(627.000000, 653.000000)">
                <circle id="Oval-3-Copy" stroke="url(#linearGradient-1)" stroke-width="5" cx="99.5" cy="99.5" r="99.5"></circle>
                <g id="002-plant-1" transform="translate(55.000000, 33.000000)" fill="url(#linearGradient-1)" fill-rule="nonzero">
                    <path d="M89.9145276,43.1427905 C89.7166673,42.4086579 89.1930645,41.8068125 88.4950096,41.5105879 L76.2858244,36.3328385 C76.285578,36.3328385 76.2853316,36.3328385 76.2850852,36.3325912 C73.58157,35.1251915 70.5212656,34.8831181 67.6617784,35.6523626 C61.1378107,37.4067146 57.1086564,43.8882974 58.2322464,50.4561761 C53.8162421,53.0371382 49.828976,56.3880866 46.5111823,60.2951362 L46.5111823,60.1472711 C46.5111823,50.6297568 47.6976046,41.1508159 50.0349675,31.9332351 C50.6573772,32.0237345 51.2783085,32.0697259 51.8940654,32.0697259 C57.635216,32.0697259 62.900073,28.2284491 64.4521548,22.4167098 C65.2182165,19.5474355 64.9777288,16.4773813 63.775044,13.7646263 C63.7745512,13.7636373 63.7743048,13.7628955 63.773812,13.7619064 L58.6141685,1.50987771 C58.3192261,0.809373223 57.7194853,0.284180308 56.9876734,0.0856257355 C56.2558615,-0.112681571 55.4740301,0.0376561377 54.8676365,0.493120051 L44.2741047,8.45211702 C44.2450294,8.47387643 44.2166932,8.49637763 44.1886035,8.5191261 C41.8063955,10.2648238 40.0781367,12.7928711 39.313307,15.6564583 C37.7636892,21.4605323 40.4016616,27.4181586 45.3609809,30.3032579 C44.3798109,34.1160991 43.5893555,37.9729537 42.9891219,41.8584911 C40.536936,36.3222061 36.873934,31.3380659 32.2194132,27.3476878 C35.7008174,22.5158635 35.5347429,15.7375615 31.4528587,11.0904449 C29.4986498,8.86579299 26.8298772,7.37205928 23.9220953,6.87134569 C23.8873527,6.86343318 23.8528565,6.85626247 23.8176211,6.84983355 L10.8027036,4.44616108 C10.0588181,4.30917573 9.29053877,4.52281353 8.72332294,5.02698884 C8.15610711,5.53116415 7.85155509,6.26925306 7.89738573,7.02835958 L8.70287163,20.3048112 C8.70311803,20.3080257 8.70336443,20.3112401 8.70336443,20.3144546 C8.8292755,23.2784317 9.97331681,26.1331173 11.9292505,28.3599946 C14.4886209,31.2737768 18.0690784,32.7615761 21.6699873,32.7615761 C24.0706753,32.7615761 26.4792481,32.0966779 28.6005171,30.7547655 C36.7600966,37.5323257 41.583156,47.7389703 41.583156,58.4171512 L41.583156,60.1472711 L41.583156,63.6685858 C38.1803538,58.9055014 33.917611,54.7296738 29.0918413,51.431393 C30.5362458,45.1426777 26.7672913,38.7691501 20.5200323,37.0892251 C17.8825526,36.379819 15.0597792,36.6018639 12.5652122,37.7135717 C12.5634874,37.7143135 12.5615162,37.7150553 12.5600378,37.7157971 L1.5049964,42.4042071 C0.806941478,42.7001844 0.283338683,43.3022771 0.085478427,44.0364097 C-0.112381829,44.7705424 0.0374301705,45.5551173 0.491547795,46.1638861 L7.67316053,55.7899502 C7.69311904,55.8169022 7.71381675,55.8433597 7.73500726,55.8693226 C9.34154384,58.0749351 11.6665867,59.6749931 14.3003703,60.3831629 C15.3332846,60.6610898 16.3721126,60.7936244 17.394678,60.7936244 C21.1764454,60.7936244 24.7359588,58.9777031 26.9865884,55.9800978 C30.9694193,58.8100568 34.504539,62.3091175 37.3783175,66.2673511 L16.2745377,66.2673511 C12.1985671,66.2673511 8.88249819,69.5950565 8.88249819,73.6853301 L8.88249819,79.6197134 C8.88249819,82.733781 10.8054141,85.4037589 13.5214958,86.5018671 L20.8462677,124.595909 C21.0700001,125.759543 22.0849271,126.6 23.2656822,126.6 L64.4147018,126.6 C65.5954569,126.6 66.610384,125.759296 66.8341164,124.595909 L74.1537138,86.5285718 C76.9055237,85.4477722 78.8604718,82.7592494 78.8604718,79.6194661 L78.8604718,73.6850829 C78.8604718,69.5948092 75.5444029,66.2671038 71.4684323,66.2671038 L48.1145156,66.2671038 L48.176116,66.1805607 C51.3214287,61.7651324 55.385572,57.985672 60.0055967,55.155713 C62.3680925,58.9680597 66.5638141,61.3232681 71.0473324,61.3232681 C72.1539208,61.3232681 73.2792356,61.1796065 74.3976511,60.8789311 L74.3978975,60.8789311 C77.2512248,60.1114176 79.7704318,58.3773413 81.5100251,55.9870212 C81.5329404,55.9588329 81.5553629,55.93015 81.5770463,55.9007254 L89.5082118,45.2700196 C89.9625758,44.6614981 90.1123878,43.8766759 89.9145276,43.1427905 Z M15.6262558,25.0896549 C14.3871036,23.6787553 13.6952087,21.9402283 13.6254771,20.0617487 C13.6239987,20.0219389 13.6215347,19.9821291 13.6183315,19.9425666 L13.007749,9.88180885 L22.7716475,11.6848723 C22.8411327,11.7021809 22.9116035,11.7167696 22.9833063,11.7281438 C24.8261417,12.0199177 26.5211364,12.9548303 27.7560997,14.3605373 C30.1530917,17.0893645 30.3723889,21.0055629 28.5546864,23.9616276 L25.6673558,20.9192671 C24.729306,19.9304505 23.1693393,19.8921243 22.183734,20.8339604 C21.1983751,21.7757964 21.1601829,23.34099 22.0987255,24.3298066 L24.8051976,27.1817723 C21.6961058,28.4947546 17.9695323,27.757902 15.6262558,25.0896549 Z M15.5759899,55.6059844 C15.5757435,55.6059844 15.5757435,55.6059844 15.5759899,55.6059844 C13.9948327,55.1809342 12.6031581,54.2096734 11.6567306,52.87147 C11.6163208,52.8141043 11.573447,52.7587167 11.5286019,52.7058018 L6.32362053,45.7291925 L14.424803,42.2934319 C14.4607776,42.2790905 14.4962594,42.2640073 14.5317411,42.247935 C16.0281363,41.5709208 17.6583274,41.4386335 19.2449055,41.8654145 C22.4276713,42.721202 24.5183865,45.6493256 24.4730486,48.825457 L21.1397316,47.1250089 C19.9271907,46.5063495 18.4436084,46.991238 17.8268659,48.2085284 C17.2101234,49.4258188 17.6935628,50.9143599 18.9068429,51.5332666 L22.679247,53.4577376 C20.9561626,55.3990228 18.2363849,56.3213248 15.5759899,55.6059844 Z M44.0735341,16.9368014 C44.5569734,15.1268146 45.6610977,13.5331854 47.1828723,12.4496659 C47.242255,12.4073834 47.2996665,12.3626283 47.3543676,12.3156478 L55.3005636,6.34565824 L59.2126773,15.6349461 C59.2267221,15.6703052 59.2412598,15.7051697 59.2570295,15.7397869 C60.0265408,17.4538346 60.177092,19.3199508 59.6921742,21.1363666 C58.6848857,24.9086563 55.1539548,27.3415061 51.3980596,27.1075925 L52.9365894,21.9770709 C53.3286139,20.6692812 52.5901491,19.2902789 51.287179,18.8966315 C49.9839624,18.5034786 48.6097823,19.2442875 48.2175114,20.5518299 L46.7923262,25.3045291 C44.3975518,23.3511279 43.2268991,20.1069984 44.0735341,16.9368014 Z M62.380659,121.654681 L25.299725,121.654681 L20.5454116,96.9280839 L32.2595766,96.9280839 C33.6202046,96.9280839 34.7235897,95.8210741 34.7235897,94.4554242 C34.7235897,93.0897742 33.6202046,91.9827645 32.2595766,91.9827645 L19.594549,91.9827645 L18.6436863,87.0374451 L69.0371905,87.0374451 L62.380659,121.654681 Z M73.9324454,73.6850829 L73.9324454,79.6194661 C73.9324454,80.9828906 72.8270891,82.0921258 71.4684323,82.0921258 L16.2745377,82.0921258 C14.9158808,82.0921258 13.8105245,80.9828906 13.8105245,79.6194661 L13.8105245,73.6850829 C13.8105245,72.3216583 14.9158808,71.2124232 16.2745377,71.2124232 L71.4684323,71.2124232 C72.8268427,71.2124232 73.9324454,72.3214111 73.9324454,73.6850829 Z M77.7277649,52.8089117 C77.6807023,52.8642993 77.6358572,52.9219123 77.5934762,52.9819979 C76.5137456,54.5088653 74.9256892,55.6171113 73.1220315,56.1022472 L73.1222779,56.1022472 C69.8034986,56.9938882 66.4036533,55.653954 64.4989711,53.002521 L67.7963135,51.6079409 C69.0502498,51.0775554 69.6386561,49.6275878 69.1098789,48.369004 C68.5813481,47.1106675 67.1369436,46.5206909 65.8822681,47.0505819 L62.9720221,48.2814719 C62.9594557,44.6921591 65.3350108,41.3975873 68.9371516,40.4287993 C69.6312641,40.2421135 70.3325222,40.1493887 71.0300844,40.1493887 C72.1509639,40.1493887 73.2617411,40.3892367 74.3143675,40.865471 C74.3483709,40.8808014 74.3823743,40.8953901 74.4168704,40.9089898 L83.6758927,44.8355733 L77.7277649,52.8089117 Z" id="XMLID_417_"></path>
                    <path d="M42,96.6 C42.6312,96.6 43.2504,96.3432 43.69656,95.8968 C44.14296,95.4504 44.4,94.8312 44.4,94.2 C44.4,93.5688 44.1432,92.9496 43.69656,92.5032 C43.2504,92.0568 42.6312,91.8 42,91.8 C41.3688,91.8 40.7496,92.0568 40.3032,92.5032 C39.8568,92.9496 39.6,93.5688 39.6,94.2 C39.6,94.8312 39.85656,95.4504 40.3032,95.8968 C40.74984,96.3432 41.3688,96.6 42,96.6 Z" id="XMLID_423_"></path>
                </g>
            </g>
        </g>
    </g>
</svg>