<?xml version="1.0" encoding="UTF-8"?>
<svg width="136px" height="136px" viewBox="0 0 136 136" version="1.1" xmlns="http://www.w3.org/2000/svg" xmlns:xlink="http://www.w3.org/1999/xlink">
    <!-- Generator: Sketch 50.2 (55047) - http://www.bohemiancoding.com/sketch -->
    <title>Group</title>
    <desc>Created with Sketch.</desc>
    <defs>
        <linearGradient x1="81.048778%" y1="16.4034981%" x2="5.40040794%" y2="104.464317%" id="linearGradient-1">
            <stop stop-color="#F5515F" offset="0%"></stop>
            <stop stop-color="#8C0ABF" offset="100%"></stop>
        </linearGradient>
    </defs>
    <g id="Page-1" stroke="none" stroke-width="1" fill="none" fill-rule="evenodd">
        <g id="home_dark-copy" transform="translate(-624.000000, -719.000000)">
            <g id="Group" transform="translate(627.000000, 722.000000)">
                <circle id="Oval-3-Copy" stroke="url(#linearGradient-1)" stroke-width="5" cx="65" cy="65" r="65"></circle>
                <g id="093-list-copy" transform="translate(25.000000, 25.000000)" fill="url(#linearGradient-1)" fill-rule="nonzero">
                    <path d="M52.7468628,35.6063468 C53.0780441,35.943539 53.5647217,36.0771521 54.0215022,35.956176 C54.4784367,35.8351998 54.8352001,35.4784357 54.956176,35.0215003 C55.077152,34.5645649 54.9435391,34.0780404 54.6063476,33.7468585 L47.1341963,26.2746929 C51.0662992,21.3556636 50.4708202,14.221769 45.7775707,10.0227405 C41.0843212,5.82371196 33.9284025,6.02251354 29.4754097,10.4753608 C25.0224168,14.9283622 24.8237697,22.0842946 29.0227902,26.7775531 C33.2218107,31.4708115 40.3556917,32.0662916 45.2747115,28.1341812 L52.7468628,35.6063468 Z M41.8409987,27.2002761 C39.3479699,28.4014075 36.443623,28.4014075 33.9505943,27.2002761 L33.9505943,26.0233399 C34.1848407,24.0681494 35.9352159,22.6561959 37.8957965,22.8409735 C38.9432785,22.8218639 39.9616338,23.1852547 40.760229,23.8631835 C41.4269065,24.3842286 41.8237384,25.1774315 41.8409987,26.0233399 L41.8409987,27.2002761 Z M35.2657644,17.5805911 C35.2657644,16.1279525 36.4433148,14.9503999 37.8959506,14.9503999 C39.3485864,14.9503999 40.5259826,16.1281066 40.5259826,17.5805911 C40.5259826,19.0330755 39.3484323,20.2107823 37.8957965,20.2107823 C36.4439313,20.2090871 35.2674596,19.0326132 35.2657644,17.5805911 Z M42.4703817,21.8636094 C42.2100908,21.642616 41.9323856,21.4430439 41.6400399,21.2667423 C43.6742848,19.2062949 43.6610314,15.8892365 41.6104509,13.8449706 C39.5598704,11.8007047 36.2428184,11.7977766 34.1886934,13.838498 C32.1345684,15.8792194 32.1154589,19.1961236 34.1461592,21.2601156 C32.6431296,22.1477878 31.628473,23.6739367 31.3912985,25.4032023 C29.6608034,23.6797929 28.688835,21.3377869 28.690222,18.8956096 C28.6872939,14.7274031 31.4854594,11.0773135 35.5114149,9.99777468 C39.5373705,8.91823584 43.7863224,10.6784775 45.8692658,14.2889608 C47.9522093,17.8994442 47.349179,22.4589354 44.3993698,25.4038187 C44.2293871,24.0217624 43.5395931,22.756059 42.4703817,21.8636094 Z" id="Shape"></path>
                    <path d="M31.5533409,36.3787492 C32.0508751,35.8715016 32.8518783,35.8741179 33.3462823,36.3844434 C33.8406864,36.8950767 33.8432203,37.7219702 33.3519463,38.2356815 L25.7205054,46.1152552 C25.4820229,46.3616458 25.158581,46.5 24.8212772,46.5 C24.4839735,46.5 24.1605316,46.3616458 23.922049,46.1152552 L21.3781857,43.4886793 C21.0535514,43.1576449 20.9255161,42.6724047 21.0426706,42.2171747 C21.1598252,41.7619446 21.5042834,41.4062865 21.9451779,41.2853228 C22.3860725,41.164359 22.8560321,41.2965573 23.1766421,41.631747 L24.8211282,43.3297028 L31.5533409,36.3787492 Z M56.6786156,41.8333333 C57.4084509,41.8333333 58.0001548,42.3557561 58,43 C58,43.6442439 57.4084509,44.1666667 56.6786156,44.1666667 L40.8213843,44.1666667 C40.0915491,44.1666667 39.5,43.6443806 39.5,43 C39.5,42.3557561 40.0915491,41.8333333 40.8213843,41.8333333 L56.6786156,41.8333333 Z M31.5515505,48.045392 C32.0495303,47.5381509 32.851251,47.5407671 33.3459487,48.05124 C33.8407957,48.5618668 33.8433318,49.3887497 33.3516178,49.9024543 L25.7133414,57.7819268 C25.4746452,58.0283142 25.1509136,58.1666667 24.8133077,58.1666667 C24.4757019,58.1666667 24.1519702,58.0283142 23.9132741,57.7819268 L21.3671322,55.1553847 C20.8754182,54.64168 20.8779543,53.8146432 21.3728013,53.3041703 C21.8677974,52.7936975 22.6693689,52.7910813 23.1673487,53.2983223 L24.8133077,54.9962563 L31.5515505,48.045392 Z M56.6786157,53.5 C57.4084509,53.5 58,54.022286 58,54.6666667 C58,55.3110473 57.4084509,55.8333333 56.6786157,55.8333333 L40.8213843,55.8333333 C40.0915491,55.8333333 39.5,55.3110473 39.5,54.6666667 C39.5,54.022286 40.0915491,53.5 40.8213843,53.5 L56.6786157,53.5 Z M31.5515505,60.8787253 C32.0495303,60.3714842 32.851251,60.3741005 33.3459487,60.8845733 C33.8407957,61.3952001 33.8433318,62.222083 33.3516178,62.7357877 L25.7133414,70.6152601 C25.4746452,70.8616475 25.1509136,71 24.8133077,71 C24.4757019,71 24.1519702,70.8616475 23.9132741,70.6152601 L21.3671322,67.988718 C20.8754182,67.4750133 20.8779543,66.6479765 21.3728013,66.1375037 C21.8677974,65.6270308 22.6693689,65.6244146 23.1673487,66.1316556 L24.8133077,67.8295896 L31.5515505,60.8787253 Z M56.6786157,65.1666667 C57.4084509,65.1666667 58,65.6889527 58,66.3333333 C58,66.977714 57.4084509,67.5 56.6786157,67.5 L40.8213843,67.5 C40.0915491,67.5 39.5,66.977714 39.5,66.3333333 C39.5,65.6889527 40.0915491,65.1666667 40.8213843,65.1666667 L56.6786157,65.1666667 Z" id="Combined-Shape"></path>
                    <path d="M68.0000097,11.4603053 L68.0000097,3.99999748 C67.9976659,1.79187387 66.2081339,0.00234374852 64.000008,0 L15.9999881,0 C13.7918622,0.00234374852 12.0024865,1.79187387 11.9999865,3.99999748 L11.9999865,11.4603053 C4.25810827,19.0413942 -0.0725185291,29.4418564 0.0009190013,40.2773183 C0.0743565317,51.112624 4.54576463,61.453555 12.3896741,68.9288628 L12.3917054,68.9307378 L12.4062366,68.945269 C12.8262368,69.3515188 13.2713932,69.7460498 13.791706,70.205737 C28.8518685,83.2894787 51.2543777,83.2616662 66.2820402,70.1405808 C66.7287591,69.7460498 67.1739156,69.3515188 67.584697,68.9543315 L67.6082908,68.9305815 L67.6101658,68.9288628 C75.4542315,61.453555 79.9256396,51.112624 79.9990771,40.2773183 C80.0726709,29.4418564 75.7418879,19.0413942 68.0000097,11.4603053 Z M11.9999865,64.6777717 C5.95185897,57.8843385 2.62779509,49.0954378 2.66670136,39.9999748 C2.62779509,30.9045118 5.95185897,22.1156111 11.9999865,15.3223341 L11.9999865,64.6777717 Z M65.3332898,67.407145 C65.0586022,67.6599573 64.7740708,67.9155822 64.4582895,68.1952695 C57.6748491,74.0921408 48.9881268,77.3376075 39.9999981,77.3332325 C30.9864006,77.3332325 22.2778032,74.0690158 15.4849879,68.1444883 C15.2085816,67.8999572 14.9382689,67.6483948 14.6667063,67.3982387 L14.6667063,3.99999748 C14.6674876,3.26390419 15.2638941,2.66734207 15.9999881,2.66671707 L64.000008,2.66671707 C64.7361021,2.66749832 65.3326648,3.26390419 65.3332898,3.99999748 L65.3332898,67.407145 Z M68.0000097,64.6769905 L68.0000097,15.3223341 C80.4445461,29.4204502 80.4445461,50.5787181 68.0000097,64.6769905 Z" id="Shape"></path>
                </g>
            </g>
        </g>
    </g>
</svg>